#N canvas 0 64 2560 1327 10;
#X floatatom 416 377 5 0 0 0 - - -, f 5;
#X floatatom 119 376 5 0 0 0 - - -, f 5;
#X obj 124 339 hsl 128 15 0 150 0 0 empty empty empty -2 -8 0 10 #f8fc00
#000000 #000000 0 1;
#X text 135 552 Ajout de filtre pour n'avoir que les fréquences vibratoires
;
#X obj 125 489 hsl 128 15 0 12 0 0 empty empty empty -2 -8 0 10 #fcfcfc
#000000 #000000 0 1;
#X floatatom 117 520 5 0 0 0 - - -, f 5;
#X obj 128 174 hsl 128 15 0 1000 0 0 empty empty empty -2 -8 0 10 #fc0400
#000000 #000000 0 1;
#X floatatom 119 214 5 0 0 0 - - -, f 5;
#X obj 376 137 bng 15 250 50 0 empty empty empty 17 7 0 10 #fcfcfc
#000000 #000000;
#X obj 407 138 bng 15 250 50 0 empty empty empty 17 7 0 10 #fcfcfc
#000000 #000000;
#X text 373 113 on / off;
#X text 160 221 fréquence de coupure;
#X text 159 208 Filtre passe bas;
#X text 158 519 Puissance de sortie;
#X text 168 376 Niveau minimal d'entrée;
#X obj 292 183 hradio 30 1 0 5 empty empty empty 0 -8 0 10 #fcfcfc
#000000 #000000 0;
#X obj 122 253 hsl 128 15 0 50 0 0 empty empty empty -2 -8 0 10 #00fc04
#000000 #000000 0 1;
#X text 166 288 fréquence de coupure;
#X text 167 276 Filtre passe haut;
#X floatatom 119 285 5 0 0 0 - - -, f 5;
#X obj 418 249 hsl 128 15 0 1000 0 0 empty empty empty -2 -8 0 10 #e0c4fc
#000000 #000000 0 1;
#X floatatom 414 287 5 0 0 0 - - -, f 5;
#X text 462 278 fréquence d'entrée;
#X text 461 290 sinus ou créneau;
#X text 172 396 seuil haut;
#X floatatom 120 459 5 0 0 0 - - -, f 5;
#X obj 123 419 hsl 128 15 0 150 0 0 empty empty empty -2 -8 0 10 #fc8000
#000000 #000000 0 1;
#X text 155 440 Niveau minimal de sortie;
#X text 281 158 white/pink/sin/squarred/adc;
#X obj 938 44 ctlin;
#X floatatom 884 91 5 0 0 0 - - -, f 5;
#X floatatom 942 109 5 0 0 0 - - -, f 5;
#X floatatom 979 106 5 0 0 0 - - -, f 5;
#X obj 868 138 pack f f;
#X msg 358 719 1;
#X msg 400 721 0;
#X obj 427 692 / 127;
#X obj 885 403 route 1 2 3 4 5 6 7 8 9;
#X obj 382 760 *~;
#X obj 408 808 *~;
#X obj 404 880 dac~;
#X obj 295 858 env~;
#X floatatom 286 892 5 0 0 0 - - -, f 5;
#X obj 358 691 bng 15 250 50 0 empty empty empty 17 7 0 10 #fcfcfc
#000000 #000000;
#X obj 398 690 bng 15 250 50 0 empty empty empty 17 7 0 10 #fcfcfc
#000000 #000000;
#X floatatom 439 757 5 0 0 0 - - -, f 5;
#X obj 740 648 / 127;
#X floatatom 738 679 5 0 0 0 - - -, f 5;
#X obj 722 746 hip~;
#X obj 720 774 hip~;
#X obj 717 806 hip~;
#X obj 783 743 lop~;
#X obj 782 771 lop~;
#X obj 780 804 lop~;
#X obj 742 618 * 50;
#X obj 801 651 / 127;
#X floatatom 799 682 5 0 0 0 - - -, f 5;
#X text 759 580 filtrage;
#X obj 806 625 * 1000;
#X obj 906 877 env~;
#X floatatom 906 901 5 0 0 0 - - -, f 5;
#X obj 948 942 -;
#X floatatom 946 1025 5 0 0 0 - - -, f 5;
#X obj 948 989 expr if ($f1>0 \, $f1/10 \, 0);
#X obj 946 1085 line~;
#X msg 946 1049 \$1 1;
#X obj 900 653 / 127;
#X floatatom 898 684 5 0 0 0 - - -, f 5;
#X obj 905 627 * 120;
#X obj 1286 24 adc~;
#X obj 925 1122 *~;
#X text 896 600 seuil d'entrée;
#X text 748 597 haut;
#X text 810 606 bas;
#X text 355 664 on / off;
#X text 420 641 niveau sortie;
#X text 922 375 niveaux et filtrages;
#X obj 1285 77 send~ signal;
#X obj 905 840 receive~ signal;
#X obj 683 716 r~ signal;
#X obj 866 172 send midi;
#X obj 887 348 r midi;
#X obj 779 835 s~ filtered_signal;
#X obj 1109 513 r~ filtered_signal;
#X obj 1502 659 env~;
#X floatatom 1502 686 5 0 0 0 - - -, f 5;
#X obj 1462 627 noise~;
#X obj 1460 686 *~;
#X text 1393 576 Bruit blanc;
#X obj 1719 682 env~;
#X floatatom 1719 709 5 0 0 0 - - -, f 5;
#X text 1641 574 Bruit rose;
#X obj 1683 711 *~;
#X obj 1363 968 env~;
#X floatatom 1363 995 5 0 0 0 - - -, f 5;
#X obj 1324 936 osc~;
#X obj 1327 992 *~;
#X text 1321 905 Sinus;
#X obj 1553 924 * -1;
#X obj 1556 1075 +~;
#X text 1570 1001 asc;
#X text 1663 1001 desc;
#X text 1571 1012 0:1;
#X text 1666 1015 1:0;
#X obj 1652 883 loadbang;
#X text 1554 902 dephase;
#X msg 1675 917 0.5;
#X msg 1641 917 0;
#X obj 1500 1040 *~ 2;
#X obj 1617 1043 *~ 2;
#X obj 1500 1062 -~ 1;
#X obj 1617 1065 -~ 1;
#X obj 1501 999 phasor~ \$1;
#X obj 1597 997 phasor~ \$1;
#X obj 1713 1006 tgl 15 0 empty empty empty 17 7 0 10 #fcfcfc #000000
#000000 1 1;
#X obj 1601 1099 *~;
#X obj 1710 1063 line~;
#X msg 1710 1036 \$1 50;
#X obj 1550 833 r freq;
#X text 1554 809 Carré;
#X obj 1365 904 r freq;
#X obj 1054 607 / 127;
#X floatatom 1052 639 5 0 0 0 - - -, f 5;
#X text 1053 550 freq entrée;
#X obj 1060 580 * 1000;
#X obj 1051 673 s freq;
#X obj 474 221 r freq;
#X obj 1417 725 env~;
#X floatatom 1417 752 5 0 0 0 - - -, f 5;
#X obj 1637 744 env~;
#X floatatom 1638 771 5 0 0 0 - - -, f 5;
#X text 1227 574 signal;
#X obj 1259 610 r~ signal;
#X obj 1283 1031 env~;
#X floatatom 1283 1058 5 0 0 0 - - -, f 5;
#X floatatom 1920 114 5 0 0 0 - - -, f 5;
#X obj 1925 181 spigot;
#X msg 1991 152 0;
#X floatatom 1922 257 5 0 0 0 - - -, f 5;
#X text 162 459 seuil bas;
#X obj 1278 657 *~;
#X obj 1255 702 env~;
#X floatatom 1255 729 5 0 0 0 - - -, f 5;
#X obj 1601 1142 *~;
#X obj 1089 47 notein;
#X floatatom 1049 89 5 0 0 0 - - -, f 5;
#X floatatom 1107 107 5 0 0 0 - - -, f 5;
#X floatatom 1144 104 5 0 0 0 - - -, f 5;
#X obj 428 663 * 1;
#X obj 953 672 / 127;
#X floatatom 951 703 5 0 0 0 - - -, f 5;
#X obj 958 646 * 120;
#X text 949 619 seuil de sortie;
#N canvas 0 64 2560 1327 controls 1;
#X obj 1327 169 textfile;
#X msg 1327 128 read mapping;
#X msg 1300 88 rewind;
#X obj 1327 234 unpack f s;
#X obj 1300 6 loadbang;
#X obj 1300 31 t b b;
#X obj 1471 167 until;
#X msg 1469 87 100;
#X text 1491 143 stops the loop;
#X text 1452 193 outputs the lines as fast as possible;
#X text 1494 82 something large enough in case there's a lot of lines
in the file;
#X obj 1093 28 unpack f f;
#X obj 1093 53 t b f;
#X obj 1105 132 ==;
#X obj 1093 3 r midi;
#X obj 1351 301 symbol;
#X obj 1105 157 sel 1;
#X obj 1105 182 t b b b;
#X text 1191 229 get 2nd item;
#N canvas 101 951 450 300 debug 1;
#X obj 43 84 tgl 15 0 empty empty empty 17 7 0 10 #fcfcfc #000000 #000000
0 1;
#X obj 179 85 tgl 15 0 empty empty empty 17 7 0 10 #fcfcfc #000000
#000000 0 1;
#X obj 44 137 tgl 15 0 empty empty empty 17 7 0 10 #fcfcfc #000000
#000000 1 1;
#X obj 178 135 tgl 15 0 empty empty empty 17 7 0 10 #fcfcfc #000000
#000000 0 1;
#X obj 46 195 tgl 15 0 empty empty empty 17 7 0 10 #fcfcfc #000000
#000000 0 1;
#X obj 178 195 tgl 15 0 empty empty empty 17 7 0 10 #fcfcfc #000000
#000000 0 1;
#X obj 178 110 r Sine_01;
#X obj 179 60 r Whitenoise_01;
#X obj 43 59 r Directsignal_01;
#X obj 44 112 r Pinknoise_01;
#X obj 46 170 r Square_01;
#X obj 178 170 r Triangle_01;
#X connect 6 0 3 0;
#X connect 7 0 1 0;
#X connect 8 0 0 0;
#X connect 9 0 2 0;
#X connect 10 0 4 0;
#X connect 11 0 5 0;
#X restore 1166 589 pd debug;
#X obj 1351 326 route symbol;
#X text 1432 324 get rid of 'symbol' prefix;
#X text 1071 98 store for comparison;
#X text 748 146 compare the midi control to the 1st item of the current
entry in file. If the two are equal \, output 1 and then output the
2nd item of the current entry in file \, that was stored in the symbol
box.;
#X text 1396 301 store for future use;
#X text 1210 104 go back to;
#X text 1213 121 beginning;
#X text 1213 138 of file;
#X obj 1372 202 t b b;
#X obj 1351 373 sel directsignal whitenoise pinknoise sine square triangle
;
#X msg 1281 513 1;
#X msg 1289 535 0;
#X msg 1396 513 1;
#X msg 1404 535 0;
#X msg 1495 513 1;
#X msg 1503 535 0;
#X msg 1589 513 1;
#X msg 1597 535 0;
#X msg 1651 512 1;
#X msg 1659 534 0;
#X msg 1726 512 1;
#X msg 1734 534 0;
#X obj 1569 567 tgl 15 0 empty empty empty 17 7 0 10 #fcfcfc #000000
#000000 0 1;
#X obj 1281 591 s Directsignal_01;
#X obj 1396 592 s Whitenoise_01;
#X obj 1495 591 s Pinknoise_01;
#X obj 1589 591 s Sine_01;
#X obj 1651 590 s Square_01;
#X obj 1726 590 s Triangle_01;
#X text 1041 590 check if it worked!;
#X connect 0 0 3 0;
#X connect 0 1 28 0;
#X connect 1 0 0 0;
#X connect 2 0 0 0;
#X connect 3 0 13 0;
#X connect 3 1 15 1;
#X connect 4 0 5 0;
#X connect 5 0 2 0;
#X connect 5 1 1 0;
#X connect 6 0 0 0;
#X connect 7 0 6 0;
#X connect 11 0 12 0;
#X connect 12 0 7 0;
#X connect 12 1 13 1;
#X connect 13 0 16 0;
#X connect 14 0 11 0;
#X connect 15 0 20 0;
#X connect 16 0 17 0;
#X connect 17 0 2 0;
#X connect 17 1 15 0;
#X connect 17 2 6 1;
#X connect 20 0 29 0;
#X connect 28 0 2 0;
#X connect 28 1 6 1;
#X connect 29 0 30 0;
#X connect 29 0 33 0;
#X connect 29 0 35 0;
#X connect 29 0 37 0;
#X connect 29 0 39 0;
#X connect 29 0 41 0;
#X connect 29 1 32 0;
#X connect 29 1 35 0;
#X connect 29 1 37 0;
#X connect 29 1 39 0;
#X connect 29 1 41 0;
#X connect 29 1 31 0;
#X connect 29 2 34 0;
#X connect 29 2 37 0;
#X connect 29 2 39 0;
#X connect 29 2 41 0;
#X connect 29 2 33 0;
#X connect 29 2 31 0;
#X connect 29 3 36 0;
#X connect 29 3 31 0;
#X connect 29 3 33 0;
#X connect 29 3 35 0;
#X connect 29 3 39 0;
#X connect 29 3 41 0;
#X connect 29 4 38 0;
#X connect 29 4 41 0;
#X connect 29 4 35 0;
#X connect 29 4 33 0;
#X connect 29 4 31 0;
#X connect 29 4 37 0;
#X connect 29 5 40 0;
#X connect 29 5 39 0;
#X connect 29 5 37 0;
#X connect 29 5 35 0;
#X connect 29 5 33 0;
#X connect 29 5 31 0;
#X connect 30 0 43 0;
#X connect 31 0 43 0;
#X connect 32 0 44 0;
#X connect 33 0 44 0;
#X connect 34 0 45 0;
#X connect 35 0 45 0;
#X connect 36 0 42 0;
#X connect 36 0 46 0;
#X connect 37 0 42 0;
#X connect 37 0 46 0;
#X connect 38 0 47 0;
#X connect 39 0 47 0;
#X connect 40 0 48 0;
#X connect 41 0 48 0;
#X restore 1335 189 pd controls;
#X msg 717 -15 23 0;
#X msg 755 -15 23 1;
#X msg 718 9 24 0;
#X msg 756 9 24 1;
#X msg 718 32 25 0;
#X msg 756 32 25 1;
#X msg 718 80 27 0;
#X msg 757 80 27 1;
#X msg 716 54 26 0;
#X msg 754 54 26 1;
#X msg 720 104 28 0;
#X msg 758 104 28 1;
#X msg 717 132 29 0;
#X msg 756 131 29 1;
#X msg 719 156 30 0;
#X msg 757 156 30 1;
#X text 695 -41 pour tester sans interface : tu peux enlever;
#X obj 1169 622 r Signal_01;
#X obj 1499 531 r Whitenoise_01;
#X obj 1767 593 r Pinknoise_01;
#X obj 1680 650 cyclone/pink~;
#X obj 1800 939 r Square_01;
#X obj 1418 907 r Sine_01;
#X obj 1983 920 r Triangle_01;
#X connect 2 0 1 0;
#X connect 4 0 5 0;
#X connect 6 0 7 0;
#X connect 8 0 15 0;
#X connect 16 0 19 0;
#X connect 20 0 21 0;
#X connect 26 0 25 0;
#X connect 29 0 30 0;
#X connect 29 0 33 1;
#X connect 29 1 31 0;
#X connect 29 1 33 0;
#X connect 29 2 32 0;
#X connect 33 0 80 0;
#X connect 34 0 38 1;
#X connect 35 0 38 1;
#X connect 36 0 45 0;
#X connect 37 0 43 0;
#X connect 37 1 44 0;
#X connect 37 2 148 0;
#X connect 37 3 54 0;
#X connect 37 4 58 0;
#X connect 37 5 68 0;
#X connect 37 6 151 0;
#X connect 37 7 124 0;
#X connect 38 0 39 0;
#X connect 39 0 40 0;
#X connect 39 0 40 1;
#X connect 39 0 41 0;
#X connect 41 0 42 0;
#X connect 43 0 34 0;
#X connect 44 0 35 0;
#X connect 45 0 39 1;
#X connect 46 0 47 0;
#X connect 47 0 48 1;
#X connect 47 0 49 1;
#X connect 47 0 50 1;
#X connect 47 0 16 0;
#X connect 48 0 49 0;
#X connect 49 0 50 0;
#X connect 50 0 51 0;
#X connect 51 0 52 0;
#X connect 52 0 53 0;
#X connect 53 0 82 0;
#X connect 54 0 46 0;
#X connect 55 0 56 0;
#X connect 56 0 51 1;
#X connect 56 0 52 1;
#X connect 56 0 53 1;
#X connect 56 0 6 0;
#X connect 58 0 55 0;
#X connect 59 0 60 0;
#X connect 60 0 61 0;
#X connect 61 0 63 0;
#X connect 63 0 62 0;
#X connect 64 0 70 1;
#X connect 65 0 64 0;
#X connect 66 0 67 0;
#X connect 67 0 61 1;
#X connect 67 0 2 0;
#X connect 68 0 66 0;
#X connect 69 0 77 0;
#X connect 69 1 77 0;
#X connect 70 0 38 0;
#X connect 78 0 59 0;
#X connect 79 0 48 0;
#X connect 81 0 37 0;
#X connect 84 0 85 0;
#X connect 86 0 84 0;
#X connect 86 0 87 0;
#X connect 87 0 127 0;
#X connect 89 0 90 0;
#X connect 92 0 129 0;
#X connect 93 0 94 0;
#X connect 95 0 93 0;
#X connect 95 0 96 0;
#X connect 96 0 133 0;
#X connect 98 0 113 0;
#X connect 99 0 115 0;
#X connect 104 0 107 0;
#X connect 104 0 106 0;
#X connect 104 0 114 0;
#X connect 106 0 113 1;
#X connect 107 0 112 1;
#X connect 108 0 110 0;
#X connect 109 0 111 0;
#X connect 110 0 99 0;
#X connect 111 0 99 1;
#X connect 112 0 108 0;
#X connect 113 0 109 0;
#X connect 114 0 117 0;
#X connect 115 0 143 0;
#X connect 116 0 115 1;
#X connect 117 0 116 0;
#X connect 118 0 98 0;
#X connect 118 0 112 0;
#X connect 118 0 107 0;
#X connect 118 0 106 0;
#X connect 120 0 95 0;
#X connect 121 0 122 0;
#X connect 122 0 125 0;
#X connect 124 0 121 0;
#X connect 126 0 20 0;
#X connect 127 0 128 0;
#X connect 129 0 130 0;
#X connect 132 0 140 0;
#X connect 133 0 134 0;
#X connect 135 0 136 0;
#X connect 136 0 138 0;
#X connect 137 0 136 1;
#X connect 140 0 141 0;
#X connect 141 0 142 0;
#X connect 144 0 145 0;
#X connect 148 0 36 0;
#X connect 149 0 150 0;
#X connect 151 0 149 0;
#X connect 154 0 80 0;
#X connect 155 0 80 0;
#X connect 156 0 80 0;
#X connect 157 0 80 0;
#X connect 158 0 80 0;
#X connect 159 0 80 0;
#X connect 160 0 80 0;
#X connect 161 0 80 0;
#X connect 162 0 80 0;
#X connect 163 0 80 0;
#X connect 164 0 80 0;
#X connect 165 0 80 0;
#X connect 166 0 80 0;
#X connect 167 0 80 0;
#X connect 168 0 80 0;
#X connect 169 0 80 0;
#X connect 171 0 140 1;
#X connect 172 0 87 1;
#X connect 173 0 92 1;
#X connect 174 0 89 0;
#X connect 174 0 92 0;
#X connect 175 0 143 1;
#X connect 176 0 96 1;
