#N canvas 67 55 1853 1000 10;
#X obj 1355 -103 adc~;
#X obj 1442 255 noise~;
#X obj 1440 314 *~;
#X text 1355 269 Bruit blanc;
#X text 1345 414 Bruit rose;
#X obj 1439 475 *~;
#X obj 1371 625 osc~;
#X obj 1427 646 *~;
#X text 1359 589 Sinus;
#X obj 1412 593 r freq;
#X obj 1396 321 env~;
#X floatatom 1394 353 5 0 0 0 - - -, f 5;
#X obj 1379 489 env~;
#X floatatom 1380 516 5 0 0 0 - - -, f 5;
#X text 1359 109 signal;
#X obj 1370 135 r~ signal;
#X obj 1383 685 env~;
#X floatatom 1383 712 5 0 0 0 - - -, f 5;
#X floatatom 1920 114 5 0 0 0 - - -, f 5;
#X obj 1925 181 spigot;
#X msg 1991 152 0;
#X floatatom 1922 257 5 0 0 0 - - -, f 5;
#X obj 1437 173 *~;
#X obj 1377 183 env~;
#X floatatom 1377 210 5 0 0 0 - - -, f 5;
#X obj 1137 -111 notein;
#X floatatom 1097 -69 5 0 0 0 - - -, f 5;
#X floatatom 1155 -51 5 0 0 0 - - -, f 5;
#X floatatom 1192 -54 5 0 0 0 - - -, f 5;
#N canvas 67 55 1853 1025 controls 0;
#X obj 935 -307 r midi;
#N canvas 1920 28 1920 1052 debug 0;
#X obj 43 84 tgl 15 0 empty empty empty 17 7 0 10 #fcfcfc #000000 #000000
0 1;
#X obj 179 85 tgl 15 0 empty empty empty 17 7 0 10 #fcfcfc #000000
#000000 0 1;
#X obj 44 137 tgl 15 0 empty empty empty 17 7 0 10 #fcfcfc #000000
#000000 0 1;
#X obj 178 135 tgl 15 0 empty empty empty 17 7 0 10 #fcfcfc #000000
#000000 0 1;
#X obj 46 195 tgl 15 0 empty empty empty 17 7 0 10 #fcfcfc #000000
#000000 0 1;
#X obj 178 195 tgl 15 0 empty empty empty 17 7 0 10 #fcfcfc #000000
#000000 0 1;
#X obj 178 110 r Sine_01;
#X obj 179 60 r Whitenoise_01;
#X obj 43 59 r Directsignal_01;
#X obj 44 112 r Pinknoise_01;
#X obj 46 170 r Square_01;
#X obj 392 55 r master-On;
#X obj 392 80 bng 15 250 50 0 empty empty empty 17 7 0 10 #fcfcfc #000000
#000000;
#X obj 475 80 bng 15 250 50 0 empty empty empty 17 7 0 10 #fcfcfc #000000
#000000;
#X obj 475 55 r master-Off;
#X floatatom 561 80 5 0 0 0 - - -, f 5;
#X obj 561 55 r master-Vol;
#X obj 390 113 r cutofffreq-hp;
#X floatatom 390 138 5 0 0 0 - - -, f 5;
#X floatatom 496 138 5 0 0 0 - - -, f 5;
#X obj 496 113 r cutofffreq-lp;
#X floatatom 392 200 5 0 0 0 - - -, f 5;
#X obj 392 175 r threshold-in;
#X floatatom 497 198 5 0 0 0 - - -, f 5;
#X obj 497 173 r threshold-out;
#X floatatom 393 264 5 0 0 0 - - -, f 5;
#X obj 393 239 r vib-f0;
#X obj 178 170 r Sawtooth_01;
#X connect 6 0 3 0;
#X connect 7 0 1 0;
#X connect 8 0 0 0;
#X connect 9 0 2 0;
#X connect 10 0 4 0;
#X connect 11 0 12 0;
#X connect 14 0 13 0;
#X connect 16 0 15 0;
#X connect 17 0 18 0;
#X connect 20 0 19 0;
#X connect 22 0 21 0;
#X connect 24 0 23 0;
#X connect 26 0 25 0;
#X connect 27 0 5 0;
#X restore 1008 279 pd debug;
#X msg 1123 203 1;
#X msg 1131 225 0;
#X msg 1238 203 1;
#X msg 1246 225 0;
#X msg 1337 203 1;
#X msg 1345 225 0;
#X msg 1431 203 1;
#X msg 1439 225 0;
#X msg 1493 202 1;
#X msg 1501 224 0;
#X msg 1568 202 1;
#X msg 1576 224 0;
#X obj 1123 281 s Directsignal_01;
#X obj 1238 282 s Whitenoise_01;
#X obj 1337 281 s Pinknoise_01;
#X obj 1431 281 s Sine_01;
#X obj 1493 280 s Square_01;
#X text 883 280 check if it worked!;
#X obj 1567 280 s Sawtooth_01;
#X obj 995 -178 midi-id_to_internal-message;
#X text 225 7 niveaux et filtrages;
#X obj 188 75 s master-On;
#X obj 291 75 s master-Off;
#X obj 395 75 s master-Vol;
#X obj 603 75 s cutofffreq-lp;
#X obj 499 75 s cutofffreq-hp;
#X obj 707 75 s threshold-in;
#X obj 811 74 s threshold-out;
#X obj 915 74 s vib-f0;
#X obj 188 35 route masteron masteroff mastervol cutoffhigh cutofflow
threshin threshout vibf0, f 139;
#X floatatom 621 115 5 0 0 0 - - -, f 5;
#X obj 1193 63 route directsignal whitenoise pinknoise sine square
sawtooth;
#X connect 0 0 21 0;
#X connect 2 0 14 0;
#X connect 3 0 14 0;
#X connect 4 0 15 0;
#X connect 5 0 15 0;
#X connect 6 0 16 0;
#X connect 7 0 16 0;
#X connect 8 0 17 0;
#X connect 9 0 17 0;
#X connect 10 0 18 0;
#X connect 11 0 18 0;
#X connect 12 0 20 0;
#X connect 13 0 20 0;
#X connect 21 0 31 0;
#X connect 21 0 33 0;
#X connect 31 0 23 0;
#X connect 31 1 24 0;
#X connect 31 2 25 0;
#X connect 31 3 27 0;
#X connect 31 4 26 0;
#X connect 31 4 32 0;
#X connect 31 5 28 0;
#X connect 31 6 29 0;
#X connect 31 7 30 0;
#X connect 33 0 2 0;
#X connect 33 0 5 0;
#X connect 33 0 7 0;
#X connect 33 0 9 0;
#X connect 33 0 11 0;
#X connect 33 0 13 0;
#X connect 33 1 4 0;
#X connect 33 1 7 0;
#X connect 33 1 9 0;
#X connect 33 1 11 0;
#X connect 33 1 13 0;
#X connect 33 1 3 0;
#X connect 33 2 6 0;
#X connect 33 2 9 0;
#X connect 33 2 11 0;
#X connect 33 2 13 0;
#X connect 33 2 5 0;
#X connect 33 2 3 0;
#X connect 33 3 8 0;
#X connect 33 3 3 0;
#X connect 33 3 5 0;
#X connect 33 3 7 0;
#X connect 33 3 11 0;
#X connect 33 3 13 0;
#X connect 33 4 10 0;
#X connect 33 4 13 0;
#X connect 33 4 7 0;
#X connect 33 4 5 0;
#X connect 33 4 3 0;
#X connect 33 4 9 0;
#X connect 33 5 12 0;
#X connect 33 5 11 0;
#X connect 33 5 9 0;
#X connect 33 5 7 0;
#X connect 33 5 5 0;
#X connect 33 5 3 0;
#X restore 1093 82 pd controls;
#X obj 1456 285 r Whitenoise_01;
#X obj 1470 435 r Pinknoise_01;
#X obj 1374 441 cyclone/pink~;
#X obj 1465 596 r Sine_01;
#X obj 1983 920 r Sawtooth_01;
#X floatatom 727 219 5 0 0 0 - - -, f 5;
#X obj 732 182 hsl 128 15 0 150 0 0 empty empty empty -2 -8 0 10 #f8fc00
#000000 #000000 160 1;
#X obj 330 599 hsl 128 15 0 1 0 0 empty empty empty -2 -8 0 10 #fcfcfc
#000000 #000000 200 1;
#X floatatom 296 636 5 0 0 0 - - -, f 5;
#X obj 417 102 hsl 128 15 0 1000 0 0 empty empty empty -2 -8 0 10 #fc0400
#000000 #000000 800 1;
#X floatatom 408 142 5 0 0 0 - - -, f 5;
#X text 449 149 fréquence de coupure;
#X text 448 136 Filtre passe bas;
#X text 337 635 Puissance de sortie;
#X text 776 219 Niveau minimal d'entrée;
#X obj 127 103 hsl 128 15 0 50 0 0 empty empty empty -2 -8 0 10 #00fc04
#000000 #000000 4800 1;
#X text 171 138 fréquence de coupure;
#X text 172 126 Filtre passe haut;
#X floatatom 124 135 5 0 0 0 - - -, f 5;
#X obj 58 203 hsl 128 15 0 200 0 0 empty empty empty -2 -8 0 10 #e0c4fc
#000000 #000000 12400 1;
#X floatatom 54 241 5 0 0 0 - - -, f 5;
#X text 102 232 fréquence d'entrée;
#X text 101 244 sinus ou créneau;
#X text 785 160 seuil haut;
#X floatatom 1009 228 5 0 0 0 - - -, f 5;
#X obj 1012 188 hsl 128 15 0 150 0 0 empty empty empty -2 -8 0 10 #fc8000
#000000 #000000 80 1;
#X text 1044 209 Niveau minimal de sortie;
#X obj 114 175 r freq;
#X text 1051 164 seuil bas;
#X obj 910 179 r seuil_sortie;
#X obj 619 177 r seuil_entree;
#X obj 13 104 r freq_ph;
#X obj 299 93 r freq_pb;
#X obj 333 575 r puis_sortie;
#X msg 309 818 1;
#X msg 351 820 0;
#X obj 378 791 / 127;
#X obj 285 860 *~;
#X obj 359 907 *~;
#X obj 355 979 dac~;
#X obj 245 934 env~;
#X floatatom 236 968 5 0 0 0 - - -, f 5;
#X obj 309 790 bng 15 250 50 0 empty empty empty 17 7 0 10 #fcfcfc
#000000 #000000;
#X obj 349 789 bng 15 250 50 0 empty empty empty 17 7 0 10 #fcfcfc
#000000 #000000;
#X floatatom 389 848 5 0 0 0 - - -, f 5;
#X obj 429 267 * 50;
#X text 446 229 filtrage;
#X obj 493 274 * 1000;
#X obj 878 509 / 127;
#X floatatom 878 536 5 0 0 0 - - -, f 5;
#X obj 878 484 * 120;
#X obj 756 937 *~;
#X text 869 457 seuil d'entrée;
#X text 435 246 haut;
#X text 497 255 bas;
#X text 306 763 on / off;
#X obj 675 654 receive~ signal;
#X obj 440 441 s~ filtered_signal;
#X obj 67 408 / 127;
#X floatatom 67 436 5 0 0 0 - - -, f 5;
#X text 66 351 freq entrée;
#X obj 67 467 s freq;
#X obj 379 762 * 1;
#X obj 931 529 / 127;
#X floatatom 931 553 5 0 0 0 - - -, f 5;
#X obj 931 503 * 120;
#X text 922 476 seuil de sortie;
#X obj 947 585 s seuil_sortie;
#X obj 848 584 s seuil_entree;
#X obj 401 894 s puis_sortie;
#X obj 1450 139 r Directsignal_01;
#X obj 1341 751 r freq;
#X obj 1384 813 *~;
#X obj 1351 845 env~;
#X floatatom 1351 872 5 0 0 0 - - -, f 5;
#X obj 1570 761 r freq;
#X obj 1586 851 *~;
#X obj 1544 871 env~;
#X floatatom 1544 898 5 0 0 0 - - -, f 5;
#X obj 1569 782 phasor~;
#X obj 1430 774 r Square_01;
#X obj 1626 814 r Sawtooth_01;
#X obj 1347 781 square~;
#X obj 1569 805 -~ 0.5;
#X obj 1569 827 *~ 2;
#X obj 1307 -69 env~;
#X floatatom 1307 -46 5 0 0 0 - - -, f 5;
#X obj 787 656 r seuil_entree;
#X text 190 50 we choose to filter signal to correspond with tactile
sensory.;
#X text 777 260 depends on the amplitude of the envelop;
#X text 775 280 if env < seuil_entree \, no signal;
#X text 774 298 if env > seuil_entree \, then we reinject some signal
;
#X text 775 316 after that \, when env < seuil entree we reinject signal
yet if env > seuil_sortie;
#X text 774 345 if env< seuil_sortie \, then no signal;
#N canvas 1987 55 1853 1025 hp_filt 0;
#X obj 261 279 / 127;
#X floatatom 259 310 5 0 0 0 - - -, f 5;
#X obj 243 377 hip~;
#X obj 241 405 hip~;
#X obj 238 437 hip~;
#X text 269 228 haut;
#X obj 143 318 s freq_ph;
#X obj 150 403 r freq_ph;
#X obj 285 167 inlet;
#X obj 245 485 outlet~;
#X obj 203 168 inlet~;
#X connect 0 0 1 0;
#X connect 1 0 6 0;
#X connect 2 0 3 0;
#X connect 3 0 4 0;
#X connect 4 0 9 0;
#X connect 7 0 2 1;
#X connect 7 0 3 1;
#X connect 7 0 4 1;
#X connect 8 0 0 0;
#X connect 10 0 2 0;
#X restore 347 329 pd hp_filt;
#N canvas 1987 55 1853 1025 lp_filt 0;
#X obj 137 260 lop~;
#X obj 136 288 lop~;
#X obj 133 322 lop~;
#X obj 155 168 / 127;
#X floatatom 153 199 5 0 0 0 - - -, f 5;
#X obj 140 229 s freq_pb;
#X obj 180 294 r freq_pb;
#X obj 154 125 inlet;
#X obj 133 347 outlet~;
#X obj 85 128 inlet~;
#X text 70 101 signal;
#X text 153 97 frequency;
#X connect 0 0 1 0;
#X connect 1 0 2 0;
#X connect 2 0 8 0;
#X connect 3 0 4 0;
#X connect 4 0 5 0;
#X connect 6 0 1 1;
#X connect 6 0 2 1;
#X connect 6 0 0 1;
#X connect 7 0 3 0;
#X connect 9 0 0 0;
#X restore 412 375 pd lp_filt;
#X text 423 295 max frequencies;
#X obj 1356 -42 send~ signal;
#X obj 1612 451 s~ main_signal;
#X floatatom 1430 799 5 0 0 0 - - -, f 5;
#X obj 313 279 r~ main_signal;
#X obj 659 850 r~ filtered_signal;
#X obj 390 417 env~;
#X floatatom 390 441 5 0 0 0 - - -, f 5;
#X obj 221 854 env~;
#X floatatom 221 878 5 0 0 0 - - -, f 5;
#X obj 294 313 env~;
#X floatatom 294 337 5 0 0 0 - - -, f 5;
#N canvas 67 55 1853 1025 seuils 0;
#X obj 331 260 env~;
#X floatatom 306 288 5 0 0 0 - - -, f 5;
#X obj 373 325 -;
#X floatatom 388 376 5 0 0 0 - - -, f 5;
#X obj 410 446 line~;
#X msg 410 410 \$1 1;
#X obj 258 384 r~ filtered_signal;
#X floatatom 525 407 5 0 0 0 - - -, f 5;
#X obj 525 381 expr if ($f1==0 \, 1 \, 0);
#X floatatom 497 464 5 0 0 0 - - -, f 5;
#X obj 499 439 expr if ($f1==1 \, $f1/10 \, 0);
#X obj 263 183 inlet~;
#X obj 384 181 inlet;
#X text 389 152 entrée \, seuil haut pour l'entrée;
#X obj 613 185 inlet;
#X obj 411 582 outlet~;
#X text 618 156 sortie \, seuil bas pour l'entrée;
#X obj 390 351 expr if ($f1>0 \, $f1 \, 0);
#X connect 0 0 1 0;
#X connect 1 0 2 0;
#X connect 2 0 17 0;
#X connect 3 0 5 0;
#X connect 3 0 8 0;
#X connect 4 0 15 0;
#X connect 5 0 4 0;
#X connect 8 0 7 0;
#X connect 10 0 9 0;
#X connect 11 0 0 0;
#X connect 12 0 2 1;
#X connect 17 0 3 0;
#X restore 793 714 pd seuils;
#X obj 893 656 r seuil_sortie;
#X obj 67 377 * 200;
#X obj 167 434 loadbang;
#X msg 167 459 50;
#X obj 961 -46 ctlin;
#X floatatom 907 1 5 0 0 0 - - -, f 5;
#X floatatom 965 19 5 0 0 0 - - -, f 5;
#X floatatom 1002 16 5 0 0 0 - - -, f 5;
#X obj 891 48 pack f f;
#X obj 889 82 send midi;
#X msg 740 -105 23 0;
#X msg 778 -105 23 1;
#X msg 741 -81 24 0;
#X msg 779 -81 24 1;
#X msg 741 -58 25 0;
#X msg 779 -58 25 1;
#X msg 741 -10 27 0;
#X msg 780 -10 27 1;
#X msg 739 -36 26 0;
#X msg 777 -36 26 1;
#X msg 743 14 28 0;
#X msg 781 14 28 1;
#X msg 740 42 29 0;
#X msg 779 41 29 1;
#X msg 742 66 30 0;
#X msg 780 66 30 1;
#X text 718 -131 pour tester sans interface : tu peux enlever;
#X obj 617 51 pack f f;
#X obj 638 -158 vsl 15 128 0 127 0 0 empty empty empty 0 -9 0 10 #fcfcfc
#000000 #000000 0 1;
#X obj 472 -80 hradio 15 0 0 9 empty empty empty 0 -8 0 10 #fcfcfc
#000000 #000000 0;
#X obj 472 -57 + 1;
#X obj 638 -17 t b f;
#X obj 494 211 r cutofffreq-lp;
#X obj 426 185 r cutofffreq-hp;
#X obj 876 391 r threshold-in;
#X obj 933 437 r threshold-out;
#X obj 63 283 r vib-f0;
#X text 379 739 niveau sortie;
#X obj 259 729 r master-On;
#X obj 325 688 r master-Off;
#X obj 387 712 r master-Vol;
#X floatatom 83 324 5 0 0 0 - - -, f 5;
#X connect 0 0 115 0;
#X connect 0 0 127 0;
#X connect 0 1 115 0;
#X connect 0 1 127 0;
#X connect 1 0 2 0;
#X connect 2 0 10 0;
#X connect 2 0 128 0;
#X connect 5 0 12 0;
#X connect 5 0 128 0;
#X connect 6 0 7 0;
#X connect 7 0 16 0;
#X connect 7 0 128 0;
#X connect 9 0 6 0;
#X connect 10 0 11 0;
#X connect 12 0 13 0;
#X connect 15 0 22 0;
#X connect 16 0 17 0;
#X connect 18 0 19 0;
#X connect 19 0 21 0;
#X connect 20 0 19 1;
#X connect 22 0 23 0;
#X connect 22 0 128 0;
#X connect 23 0 24 0;
#X connect 25 0 26 0;
#X connect 30 0 2 1;
#X connect 31 0 5 1;
#X connect 32 0 5 0;
#X connect 33 0 7 1;
#X connect 36 0 35 0;
#X connect 37 0 38 0;
#X connect 39 0 40 0;
#X connect 45 0 48 0;
#X connect 49 0 50 0;
#X connect 55 0 54 0;
#X connect 57 0 49 0;
#X connect 59 0 55 0;
#X connect 60 0 36 0;
#X connect 61 0 45 0;
#X connect 62 0 39 0;
#X connect 63 0 37 0;
#X connect 64 0 67 1;
#X connect 65 0 67 1;
#X connect 66 0 74 0;
#X connect 67 0 68 0;
#X connect 67 0 134 0;
#X connect 68 0 69 0;
#X connect 68 0 69 1;
#X connect 68 0 70 0;
#X connect 70 0 71 0;
#X connect 72 0 64 0;
#X connect 73 0 65 0;
#X connect 74 0 68 1;
#X connect 74 0 99 0;
#X connect 75 0 124 1;
#X connect 77 0 125 1;
#X connect 78 0 79 0;
#X connect 79 0 98 0;
#X connect 80 0 78 0;
#X connect 81 0 67 0;
#X connect 86 0 138 0;
#X connect 88 0 89 0;
#X connect 89 0 91 0;
#X connect 92 0 66 0;
#X connect 93 0 94 0;
#X connect 94 0 97 0;
#X connect 95 0 93 0;
#X connect 100 0 22 1;
#X connect 101 0 112 0;
#X connect 102 0 103 0;
#X connect 102 0 128 0;
#X connect 103 0 104 0;
#X connect 105 0 109 0;
#X connect 106 0 107 0;
#X connect 106 0 128 0;
#X connect 107 0 108 0;
#X connect 109 0 113 0;
#X connect 110 0 102 1;
#X connect 110 0 129 0;
#X connect 111 0 106 1;
#X connect 112 0 102 0;
#X connect 113 0 114 0;
#X connect 114 0 106 0;
#X connect 115 0 116 0;
#X connect 117 0 138 1;
#X connect 124 0 125 0;
#X connect 125 0 87 0;
#X connect 125 0 132 0;
#X connect 130 0 124 0;
#X connect 130 0 136 0;
#X connect 131 0 81 0;
#X connect 132 0 133 0;
#X connect 134 0 135 0;
#X connect 136 0 137 0;
#X connect 138 0 81 1;
#X connect 139 0 138 2;
#X connect 140 0 88 0;
#X connect 141 0 142 0;
#X connect 142 0 91 0;
#X connect 143 0 144 0;
#X connect 143 0 147 1;
#X connect 143 1 145 0;
#X connect 143 1 147 0;
#X connect 143 2 146 0;
#X connect 147 0 148 0;
#X connect 149 0 148 0;
#X connect 150 0 148 0;
#X connect 151 0 148 0;
#X connect 152 0 148 0;
#X connect 153 0 148 0;
#X connect 154 0 148 0;
#X connect 155 0 148 0;
#X connect 156 0 148 0;
#X connect 157 0 148 0;
#X connect 158 0 148 0;
#X connect 159 0 148 0;
#X connect 160 0 148 0;
#X connect 161 0 148 0;
#X connect 162 0 148 0;
#X connect 163 0 148 0;
#X connect 164 0 148 0;
#X connect 166 0 148 0;
#X connect 167 0 170 0;
#X connect 168 0 169 0;
#X connect 169 0 166 0;
#X connect 170 0 166 0;
#X connect 170 1 166 1;
#X connect 171 0 77 0;
#X connect 172 0 75 0;
#X connect 173 0 80 0;
#X connect 174 0 95 0;
#X connect 175 0 140 0;
#X connect 175 0 180 0;
#X connect 177 0 72 0;
#X connect 178 0 73 0;
#X connect 179 0 92 0;
