#N canvas 0 60 1920 1020 10;
#X floatatom 416 377 5 0 0 0 - - -, f 5;
#X floatatom 119 376 5 0 0 0 - - -, f 5;
#X obj 124 339 hsl 128 15 0 150 0 0 empty empty empty -2 -8 0 10 -257985
-1 -1 10080 1;
#X text 135 552 Ajout de filtre pour n'avoir que les fréquences vibratoires
;
#X obj 125 489 hsl 128 15 0 12 0 0 empty empty empty -2 -8 0 10 -262144
-1 -1 0 1;
#X floatatom 117 520 5 0 0 0 - - -, f 5;
#X obj 128 174 hsl 128 15 0 1000 0 0 empty empty empty -2 -8 0 10 -258113
-1 -1 400 1;
#X floatatom 119 214 5 0 0 0 - - -, f 5;
#X obj 376 137 bng 15 250 50 0 empty empty empty 17 7 0 10 -262144
-1 -1;
#X obj 407 138 bng 15 250 50 0 empty empty empty 17 7 0 10 -262144
-1 -1;
#X text 373 113 on / off;
#X text 160 221 fréquence de coupure;
#X text 159 208 Filtre passe bas;
#X text 158 519 Puissance de sortie;
#X text 168 376 Niveau minimal d'entrée;
#X obj 292 183 hradio 30 1 0 5 empty empty empty 0 -8 0 10 -262144
-1 -1 0;
#X obj 122 253 hsl 128 15 0 50 0 0 empty empty empty -2 -8 0 10 -4034
-1 -1 200 1;
#X text 166 288 fréquence de coupure;
#X text 167 276 Filtre passe haut;
#X floatatom 119 285 5 0 0 0 - - -, f 5;
#X obj 418 249 hsl 128 15 0 1000 0 0 empty empty empty -2 -8 0 10 -232576
-1 -1 200 1;
#X floatatom 414 287 5 0 0 0 - - -, f 5;
#X text 462 278 fréquence d'entrée;
#X text 461 290 sinus ou créneau;
#X text 172 396 seuil haut;
#X floatatom 120 459 5 0 0 0 - - -, f 5;
#X obj 123 419 hsl 128 15 0 150 0 0 empty empty empty -2 -8 0 10 -260097
-1 -1 0 1;
#X text 155 440 Niveau minimal de sortie;
#X text 281 158 white/pink/sin/squarred/adc;
#X obj 938 44 ctlin;
#X floatatom 884 91 5 0 0 0 - - -, f 5;
#X floatatom 942 109 5 0 0 0 - - -, f 5;
#X floatatom 979 106 5 0 0 0 - - -, f 5;
#X obj 868 138 pack f f;
#X msg 358 719 1;
#X msg 400 721 0;
#X obj 427 692 / 127;
#X obj 885 403 route 1 2 3 4 5 6 7 8 9;
#X obj 382 760 *~;
#X obj 408 808 *~;
#X obj 404 880 dac~;
#X obj 295 858 env~;
#X floatatom 286 892 5 0 0 0 - - -, f 5;
#X obj 358 691 bng 15 250 50 0 empty empty empty 17 7 0 10 -262144
-1 -1;
#X obj 398 690 bng 15 250 50 0 empty empty empty 17 7 0 10 -262144
-1 -1;
#X floatatom 439 757 5 0 0 0 - - -, f 5;
#X obj 740 648 / 127;
#X floatatom 738 679 5 0 0 0 - - -, f 5;
#X obj 722 746 hip~;
#X obj 720 774 hip~;
#X obj 717 806 hip~;
#X obj 783 743 lop~;
#X obj 782 771 lop~;
#X obj 780 804 lop~;
#X obj 742 618 * 50;
#X obj 801 651 / 127;
#X floatatom 799 682 5 0 0 0 - - -, f 5;
#X text 759 580 filtrage;
#X obj 806 625 * 1000;
#X obj 906 877 env~;
#X floatatom 906 901 5 0 0 0 - - -, f 5;
#X obj 948 942 -;
#X floatatom 946 1025 5 0 0 0 - - -, f 5;
#X obj 948 989 expr if ($f1>0 \, $f1/10 \, 0);
#X obj 946 1085 line~;
#X msg 946 1049 \$1 1;
#X obj 900 653 / 127;
#X floatatom 898 684 5 0 0 0 - - -, f 5;
#X obj 905 627 * 120;
#X obj 1286 24 adc~;
#X obj 925 1122 *~;
#X text 896 600 seuil d'entrée;
#X text 748 597 haut;
#X text 810 606 bas;
#X text 355 664 on / off;
#X text 420 641 niveau sortie;
#X obj 1371 421 route 23 24 25 26 27 28 29 30;
#X text 1458 386 choix des formes d'ondes;
#X text 922 375 niveaux et filtrages;
#X obj 1285 77 send~ signal;
#X obj 905 840 receive~ signal;
#X obj 683 716 r~ signal;
#X obj 866 172 send midi;
#X obj 887 348 r midi;
#X obj 1353 325 r midi;
#X obj 779 835 s~ filtered_signal;
#X obj 1109 513 r~ filtered_signal;
#X obj 1502 659 env~;
#X floatatom 1502 686 5 0 0 0 - - -, f 5;
#X obj 1462 627 noise~;
#X obj 1460 686 *~;
#X text 1393 576 Bruit blanc;
#X obj 1719 682 env~;
#X floatatom 1719 709 5 0 0 0 - - -, f 5;
#X obj 1680 650 pink~;
#X text 1641 574 Bruit rose;
#X obj 1683 711 *~;
#X obj 1363 968 env~;
#X floatatom 1363 995 5 0 0 0 - - -, f 5;
#X obj 1324 936 osc~;
#X obj 1327 992 *~;
#X text 1321 905 Sinus;
#X obj 1553 924 * -1;
#X obj 1556 1075 +~;
#X text 1570 1001 asc;
#X text 1663 1001 desc;
#X text 1571 1012 0:1;
#X text 1666 1015 1:0;
#X obj 1652 883 loadbang;
#X text 1554 902 dephase;
#X msg 1675 917 0.5;
#X msg 1641 917 0;
#X obj 1500 1040 *~ 2;
#X obj 1617 1043 *~ 2;
#X obj 1500 1062 -~ 1;
#X obj 1617 1065 -~ 1;
#X obj 1501 999 phasor~ \$1;
#X obj 1597 997 phasor~ \$1;
#X obj 1713 1006 tgl 15 0 empty empty empty 17 7 0 10 -262144 -1 -1
1 1;
#X obj 1601 1099 *~;
#X obj 1710 1063 line~;
#X msg 1710 1036 \$1 50;
#X obj 1550 833 r freq;
#X text 1554 809 Carré;
#X obj 1365 904 r freq;
#X obj 1054 607 / 127;
#X floatatom 1052 639 5 0 0 0 - - -, f 5;
#X text 1053 550 freq entrée;
#X obj 1060 580 * 1000;
#X obj 1051 673 s freq;
#X obj 474 221 r freq;
#X obj 1417 725 env~;
#X floatatom 1417 752 5 0 0 0 - - -, f 5;
#X obj 1637 744 env~;
#X floatatom 1638 771 5 0 0 0 - - -, f 5;
#X text 1227 574 signal;
#X obj 1259 610 r~ signal;
#X obj 1283 1031 env~;
#X floatatom 1283 1058 5 0 0 0 - - -, f 5;
#X floatatom 1920 114 5 0 0 0 - - -, f 5;
#X obj 1925 181 spigot;
#X msg 1991 152 0;
#X floatatom 1922 257 5 0 0 0 - - -, f 5;
#X obj 1359 370 unpack f f;
#X text 162 459 seuil bas;
#X msg 1301 441 0;
#X msg 1268 441 1;
#X obj 1248 467 s b23on;
#X obj 1301 467 s b23off;
#X msg 1398 468 0;
#X msg 1365 468 1;
#X msg 1487 447 0;
#X msg 1454 447 1;
#X msg 1582 474 0;
#X msg 1549 474 1;
#X msg 1678 446 0;
#X msg 1645 446 1;
#X obj 1345 494 s b24on;
#X obj 1398 494 s b24off;
#X obj 1435 473 s b25on;
#X obj 1486 472 s b25off;
#X obj 1528 500 s b26on;
#X obj 1582 500 s b26off;
#X obj 1625 472 s b27on;
#X obj 1678 472 s b27off;
#X obj 1278 657 *~;
#X obj 1255 702 env~;
#X floatatom 1255 729 5 0 0 0 - - -, f 5;
#X obj 1182 607 r b23on;
#X obj 1181 630 r b24off;
#X obj 1363 600 r b24on;
#X obj 1361 622 r b23off;
#X obj 1598 628 r b24off;
#X obj 1599 605 r b25on;
#X obj 1242 922 r b24off;
#X obj 1243 899 r b26on;
#X obj 1435 1069 r b24off;
#X obj 1436 1046 r b27on;
#X obj 1601 1142 *~;
#X obj 1089 47 notein;
#X floatatom 1049 89 5 0 0 0 - - -, f 5;
#X floatatom 1107 107 5 0 0 0 - - -, f 5;
#X floatatom 1144 104 5 0 0 0 - - -, f 5;
#X obj 428 663 * 1;
#X obj 953 672 / 127;
#X floatatom 951 703 5 0 0 0 - - -, f 5;
#X obj 958 646 * 120;
#X text 949 619 seuil de sortie;
#X connect 2 0 1 0;
#X connect 4 0 5 0;
#X connect 6 0 7 0;
#X connect 8 0 15 0;
#X connect 16 0 19 0;
#X connect 20 0 21 0;
#X connect 26 0 25 0;
#X connect 29 0 30 0;
#X connect 29 0 33 1;
#X connect 29 1 31 0;
#X connect 29 1 33 0;
#X connect 29 2 32 0;
#X connect 33 0 82 0;
#X connect 34 0 38 1;
#X connect 35 0 38 1;
#X connect 36 0 45 0;
#X connect 37 0 43 0;
#X connect 37 1 44 0;
#X connect 37 2 183 0;
#X connect 37 3 54 0;
#X connect 37 4 58 0;
#X connect 37 5 68 0;
#X connect 37 6 186 0;
#X connect 37 7 128 0;
#X connect 38 0 39 0;
#X connect 39 0 40 0;
#X connect 39 0 40 1;
#X connect 39 0 41 0;
#X connect 41 0 42 0;
#X connect 43 0 34 0;
#X connect 44 0 35 0;
#X connect 45 0 39 1;
#X connect 46 0 47 0;
#X connect 47 0 48 1;
#X connect 47 0 49 1;
#X connect 47 0 50 1;
#X connect 47 0 16 0;
#X connect 48 0 49 0;
#X connect 49 0 50 0;
#X connect 50 0 51 0;
#X connect 51 0 52 0;
#X connect 52 0 53 0;
#X connect 53 0 85 0;
#X connect 54 0 46 0;
#X connect 55 0 56 0;
#X connect 56 0 51 1;
#X connect 56 0 52 1;
#X connect 56 0 53 1;
#X connect 56 0 6 0;
#X connect 58 0 55 0;
#X connect 59 0 60 0;
#X connect 60 0 61 0;
#X connect 61 0 63 0;
#X connect 63 0 62 0;
#X connect 64 0 70 1;
#X connect 65 0 64 0;
#X connect 66 0 67 0;
#X connect 67 0 61 1;
#X connect 67 0 2 0;
#X connect 68 0 66 0;
#X connect 69 0 79 0;
#X connect 69 1 79 0;
#X connect 70 0 38 0;
#X connect 76 0 146 0;
#X connect 76 0 145 0;
#X connect 76 1 150 0;
#X connect 76 1 149 0;
#X connect 76 2 152 0;
#X connect 76 2 151 0;
#X connect 76 3 154 0;
#X connect 76 3 153 0;
#X connect 76 4 156 0;
#X connect 76 4 155 0;
#X connect 80 0 59 0;
#X connect 81 0 48 0;
#X connect 83 0 37 0;
#X connect 84 0 143 0;
#X connect 87 0 88 0;
#X connect 89 0 87 0;
#X connect 89 0 90 0;
#X connect 90 0 131 0;
#X connect 92 0 93 0;
#X connect 94 0 92 0;
#X connect 94 0 96 0;
#X connect 96 0 133 0;
#X connect 97 0 98 0;
#X connect 99 0 97 0;
#X connect 99 0 100 0;
#X connect 100 0 137 0;
#X connect 102 0 117 0;
#X connect 103 0 119 0;
#X connect 108 0 111 0;
#X connect 108 0 110 0;
#X connect 108 0 118 0;
#X connect 110 0 117 1;
#X connect 111 0 116 1;
#X connect 112 0 114 0;
#X connect 113 0 115 0;
#X connect 114 0 103 0;
#X connect 115 0 103 1;
#X connect 116 0 112 0;
#X connect 117 0 113 0;
#X connect 118 0 121 0;
#X connect 119 0 178 0;
#X connect 120 0 119 1;
#X connect 121 0 120 0;
#X connect 122 0 102 0;
#X connect 122 0 116 0;
#X connect 122 0 111 0;
#X connect 122 0 110 0;
#X connect 124 0 99 0;
#X connect 125 0 126 0;
#X connect 126 0 129 0;
#X connect 128 0 125 0;
#X connect 130 0 20 0;
#X connect 131 0 132 0;
#X connect 133 0 134 0;
#X connect 136 0 165 0;
#X connect 137 0 138 0;
#X connect 139 0 140 0;
#X connect 140 0 142 0;
#X connect 141 0 140 1;
#X connect 143 0 76 0;
#X connect 145 0 148 0;
#X connect 146 0 147 0;
#X connect 149 0 158 0;
#X connect 150 0 157 0;
#X connect 151 0 160 0;
#X connect 152 0 159 0;
#X connect 153 0 162 0;
#X connect 154 0 161 0;
#X connect 155 0 164 0;
#X connect 156 0 163 0;
#X connect 165 0 166 0;
#X connect 166 0 167 0;
#X connect 168 0 165 1;
#X connect 169 0 165 1;
#X connect 170 0 90 1;
#X connect 171 0 90 1;
#X connect 172 0 96 1;
#X connect 173 0 96 1;
#X connect 174 0 100 1;
#X connect 175 0 100 1;
#X connect 176 0 178 1;
#X connect 177 0 178 1;
#X connect 179 0 180 0;
#X connect 183 0 36 0;
#X connect 184 0 185 0;
#X connect 186 0 184 0;
