
#N canvas 0 60 1920 1020 10;
#X obj 938 44 ctlin;
#X floatatom 884 91 5 0 0 0 - - -, f 5;
#X floatatom 942 109 5 0 0 0 - - -, f 5;
#X floatatom 979 106 5 0 0 0 - - -, f 5;
#X obj 868 138 pack f f;
#X obj 1286 24 adc~;
#X obj 1285 77 send~ signal;
#X obj 866 172 send midi;
#X obj 1210 500 r~ filtered_signal;
#X obj 1502 659 env~;
#X floatatom 1502 686 5 0 0 0 - - -, f 5;
#X obj 1462 627 noise~;
#X obj 1460 686 *~;
#X text 1393 576 Bruit blanc;
#X obj 1719 682 env~;
#X floatatom 1719 709 5 0 0 0 - - -, f 5;
#X text 1641 574 Bruit rose;
#X obj 1683 711 *~;
#X obj 1363 968 env~;
#X floatatom 1363 995 5 0 0 0 - - -, f 5;
#X obj 1324 936 osc~;
#X obj 1327 992 *~;
#X text 1321 905 Sinus;
#X obj 1365 904 r freq;
#X obj 1417 725 env~;
#X floatatom 1417 752 5 0 0 0 - - -, f 5;
#X obj 1637 744 env~;
#X floatatom 1638 771 5 0 0 0 - - -, f 5;
#X text 1227 574 signal;
#X obj 1259 610 r~ signal;
#X obj 1283 1031 env~;
#X floatatom 1283 1058 5 0 0 0 - - -, f 5;
#X floatatom 1920 114 5 0 0 0 - - -, f 5;
#X obj 1925 181 spigot;
#X msg 1991 152 0;
#X floatatom 1922 257 5 0 0 0 - - -, f 5;
#X obj 1278 657 *~;
#X obj 1255 702 env~;
#X floatatom 1255 729 5 0 0 0 - - -, f 5;
#X obj 1089 47 notein;
#X floatatom 1049 89 5 0 0 0 - - -, f 5;
#X floatatom 1107 107 5 0 0 0 - - -, f 5;
#X floatatom 1144 104 5 0 0 0 - - -, f 5;
#N canvas 0 60 1920 1020 controls 0;
#X obj 1327 169 textfile;
#X msg 1327 128 read mapping;
#X msg 1300 88 rewind;
#X obj 1327 234 unpack f s;
#X obj 1300 6 loadbang;
#X obj 1300 31 t b b;
#X obj 1471 167 until;
#X msg 1469 87 100;
#X text 1491 143 stops the loop;
#X text 1452 193 outputs the lines as fast as possible;
#X text 1494 82 something large enough in case there's a lot of lines
in the file;
#X obj 1093 28 unpack f f;
#X obj 1093 53 t b f;
#X obj 1105 132 ==;
#X obj 1093 3 r midi;
#X obj 1351 301 symbol;
#X obj 1105 157 sel 1;
#X obj 1105 182 t b b b;
#X text 1191 229 get 2nd item;
#N canvas 101 780 450 300 debug 0;
#X obj 43 84 tgl 15 0 empty empty empty 17 7 0 10 -262144 -1 -1 0 1
;
#X obj 179 85 tgl 15 0 empty empty empty 17 7 0 10 -262144 -1 -1 0
1;
#X obj 44 137 tgl 15 0 empty empty empty 17 7 0 10 -262144 -1 -1 0
1;
#X obj 178 135 tgl 15 0 empty empty empty 17 7 0 10 -262144 -1 -1 1
1;
#X obj 46 195 tgl 15 0 empty empty empty 17 7 0 10 -262144 -1 -1 0
1;
#X obj 178 195 tgl 15 0 empty empty empty 17 7 0 10 -262144 -1 -1 0
1;
#X obj 178 110 r Sine_01;
#X obj 179 60 r Whitenoise_01;
#X obj 43 59 r Directsignal_01;
#X obj 44 112 r Pinknoise_01;
#X obj 46 170 r Square_01;
#X obj 178 170 r Sawtooth_01;
#X connect 6 0 3 0;
#X connect 7 0 1 0;
#X connect 8 0 0 0;
#X connect 9 0 2 0;
#X connect 10 0 4 0;
#X connect 11 0 5 0;
#X restore 1166 589 pd debug;
#X obj 1351 326 route symbol;
#X text 1432 324 get rid of 'symbol' prefix;
#X text 1071 98 store for comparison;
#X text 748 146 compare the midi control to the 1st item of the current
entry in file. If the two are equal \, output 1 and then output the
2nd item of the current entry in file \, that was stored in the symbol
box.;
#X text 1396 301 store for future use;
#X text 1210 104 go back to;
#X text 1213 121 beginning;
#X text 1213 138 of file;
#X obj 1372 202 t b b;
#X msg 1281 513 1;
#X msg 1289 535 0;
#X msg 1396 513 1;
#X msg 1404 535 0;
#X msg 1495 513 1;
#X msg 1503 535 0;
#X msg 1589 513 1;
#X msg 1597 535 0;
#X msg 1651 512 1;
#X msg 1659 534 0;
#X msg 1726 512 1;
#X msg 1734 534 0;
#X obj 1569 567 tgl 15 0 empty empty empty 17 7 0 10 -262144 -1 -1
1 1;
#X obj 1281 591 s Directsignal_01;
#X obj 1396 592 s Whitenoise_01;
#X obj 1495 591 s Pinknoise_01;
#X obj 1589 591 s Sine_01;
#X obj 1651 590 s Square_01;
#X text 1041 590 check if it worked!;
#X obj 1351 373 sel directsignal whitenoise pinknoise sine square sawtooth
;
#X obj 1725 590 s Sawtooth_01;
#X connect 0 0 3 0;
#X connect 0 1 28 0;
#X connect 1 0 0 0;
#X connect 2 0 0 0;
#X connect 3 0 13 0;
#X connect 3 1 15 1;
#X connect 4 0 5 0;
#X connect 5 0 2 0;
#X connect 5 1 1 0;
#X connect 6 0 0 0;
#X connect 7 0 6 0;
#X connect 11 0 12 0;
#X connect 12 0 7 0;
#X connect 12 1 13 1;
#X connect 13 0 16 0;
#X connect 14 0 11 0;
#X connect 15 0 20 0;
#X connect 16 0 17 0;
#X connect 17 0 2 0;
#X connect 17 1 15 0;
#X connect 17 2 6 1;
#X connect 20 0 48 0;
#X connect 28 0 2 0;
#X connect 28 1 6 1;
#X connect 29 0 42 0;
#X connect 30 0 42 0;
#X connect 31 0 43 0;
#X connect 32 0 43 0;
#X connect 33 0 44 0;
#X connect 34 0 44 0;
#X connect 35 0 41 0;
#X connect 35 0 45 0;
#X connect 36 0 41 0;
#X connect 36 0 45 0;
#X connect 37 0 46 0;
#X connect 38 0 46 0;
#X connect 39 0 49 0;
#X connect 40 0 49 0;
#X connect 48 0 29 0;
#X connect 48 0 32 0;
#X connect 48 0 34 0;
#X connect 48 0 36 0;
#X connect 48 0 38 0;
#X connect 48 0 40 0;
#X connect 48 1 31 0;
#X connect 48 1 34 0;
#X connect 48 1 36 0;
#X connect 48 1 38 0;
#X connect 48 1 40 0;
#X connect 48 1 30 0;
#X connect 48 2 33 0;
#X connect 48 2 36 0;
#X connect 48 2 38 0;
#X connect 48 2 40 0;
#X connect 48 2 32 0;
#X connect 48 2 30 0;
#X connect 48 3 35 0;
#X connect 48 3 30 0;
#X connect 48 3 32 0;
#X connect 48 3 34 0;
#X connect 48 3 38 0;
#X connect 48 3 40 0;
#X connect 48 4 37 0;
#X connect 48 4 40 0;
#X connect 48 4 34 0;
#X connect 48 4 32 0;
#X connect 48 4 30 0;
#X connect 48 4 36 0;
#X connect 48 5 39 0;
#X connect 48 5 38 0;
#X connect 48 5 36 0;
#X connect 48 5 34 0;
#X connect 48 5 32 0;
#X connect 48 5 30 0;
#X restore 1335 189 pd controls;
#X msg 717 -15 23 0;
#X msg 755 -15 23 1;
#X msg 718 9 24 0;
#X msg 756 9 24 1;
#X msg 718 32 25 0;
#X msg 756 32 25 1;
#X msg 718 80 27 0;
#X msg 757 80 27 1;
#X msg 716 54 26 0;
#X msg 754 54 26 1;
#X msg 720 104 28 0;
#X msg 758 104 28 1;
#X msg 717 132 29 0;
#X msg 756 131 29 1;
#X msg 719 156 30 0;
#X msg 757 156 30 1;
#X text 695 -41 pour tester sans interface : tu peux enlever;
#X obj 1499 531 r Whitenoise_01;
#X obj 1767 593 r Pinknoise_01;
#X obj 1680 650 cyclone/pink~;
#X obj 1418 907 r Sine_01;
#X obj 1983 920 r Sawtooth_01;
#X floatatom 416 377 5 0 0 0 - - -, f 5;
#X floatatom 119 376 5 0 0 0 - - -, f 5;
#X obj 124 339 hsl 128 15 0 150 0 0 empty empty empty -2 -8 0 10 -257985
-1 -1 0 1;
#X obj 125 489 hsl 128 15 0 1 0 0 empty empty empty -2 -8 0 10 -262144
-1 -1 0 1;
#X floatatom 117 520 5 0 0 0 - - -, f 5;
#X obj 128 174 hsl 128 15 0 1000 0 0 empty empty empty -2 -8 0 10 -258113

-1 -1 100 1;



#X floatatom 119 214 5 0 0 0 - - -, f 5;
#X obj 376 137 bng 15 250 50 0 empty empty empty 17 7 0 10 #fcfcfc
#000000 #000000;
#X obj 407 138 bng 15 250 50 0 empty empty empty 17 7 0 10 #fcfcfc
#000000 #000000;
#X text 373 113 on / off;
#X text 160 221 fréquence de coupure;
#X text 159 208 Filtre passe bas;
#X text 158 519 Puissance de sortie;
#X text 168 376 Niveau minimal d'entrée;

#X obj 292 183 hradio 30 1 0 5 empty empty empty 0 -8 0 10 -262144
-1 -1 0;
#X obj 122 253 hsl 128 15 0 50 0 0 empty empty empty -2 -8 0 10 -4034
-1 -1 0 1;
#X text 166 288 fréquence de coupure;
#X text 167 276 Filtre passe haut;
#X floatatom 119 285 5 0 0 0 - - -, f 5;
#X obj 418 249 hsl 128 15 0 1000 0 0 empty empty empty -2 -8 0 10 -232576
-1 -1 0 1;

#X floatatom 414 287 5 0 0 0 - - -, f 5;
#X text 462 278 fréquence d'entrée;
#X text 461 290 sinus ou créneau;
#X text 172 396 seuil haut;
#X floatatom 120 459 5 0 0 0 - - -, f 5;


#X obj 123 419 hsl 128 15 0 150 0 0 empty empty empty -2 -8 0 10 -260097

-1 -1 800 1;


#X text 155 440 Niveau minimal de sortie;
#X text 281 158 white/pink/sin/squarred/adc;
#X obj 474 221 r freq;
#X text 162 459 seuil bas;
#X obj 12 402 r seuil_sortie;
#X obj 11 334 r seuil_entree;
#X obj 8 254 r freq_ph;
#X obj 10 165 r freq_pb;
#X obj 13 479 r puis_sortie;
#X floatatom 416 377 5 0 0 0 - - -, f 5;
#X msg 323 743 1;
#X msg 365 745 0;
#X obj 392 716 / 127;
#X obj 885 403 route 1 2 3 4 5 6 7 8 9;

#X obj 347 784 *~;
#X obj 373 832 *~;
#X obj 369 904 dac~;
#X obj 260 882 env~;
#X floatatom 251 916 5 0 0 0 - - -, f 5;
#X obj 323 715 bng 15 250 50 0 empty empty empty 17 7 0 10 -262144
-1 -1;
#X obj 363 714 bng 15 250 50 0 empty empty empty 17 7 0 10 -262144
-1 -1;
#X floatatom 403 773 5 0 0 0 - - -, f 5;

#X obj 740 648 / 127;
#X floatatom 738 679 5 0 0 0 - - -, f 5;
#X obj 722 746 hip~;
#X obj 720 774 hip~;
#X obj 717 806 hip~;
#X obj 783 743 lop~;
#X obj 782 771 lop~;
#X obj 780 804 lop~;
#X obj 742 618 * 50;
#X obj 801 651 / 127;
#X floatatom 799 682 5 0 0 0 - - -, f 5;
#X text 759 580 filtrage;
#X obj 806 625 * 1000;
#X obj 906 877 env~;
#X floatatom 906 901 5 0 0 0 - - -, f 5;
#X obj 948 942 -;
#X floatatom 946 1025 5 0 0 0 - - -, f 5;
#X obj 948 989 expr if ($f1>0 \, $f1/10 \, 0);
#X obj 946 1085 line~;
#X msg 946 1049 \$1 1;
#X obj 900 653 / 127;
#X floatatom 898 684 5 0 0 0 - - -, f 5;
#X obj 905 627 * 120;
#X obj 925 1122 *~;
#X text 896 600 seuil d'entrée;
#X text 748 597 haut;
#X text 810 606 bas;
#X text 320 688 on / off;
#X text 385 665 niveau sortie;
#X text 922 375 niveaux et filtrages;
#X obj 905 840 receive~ signal;
#X obj 683 716 r~ signal;
#X obj 887 348 r midi;
#X obj 779 835 s~ filtered_signal;

#X obj 1054 607 / 127;
#X floatatom 1052 639 5 0 0 0 - - -, f 5;
#X text 1053 550 freq entrée;
#X obj 1060 580 * 1000;
#X obj 1051 673 s freq;

#X obj 393 687 * 1;

#X obj 953 672 / 127;
#X floatatom 951 703 5 0 0 0 - - -, f 5;
#X obj 958 646 * 120;
#X text 949 619 seuil de sortie;


#X obj 960 735 s seuil_sortie;
#X obj 860 740 s seuil_entree;
#X obj 658 687 s freq_ph;
#X obj 786 712 s freq_pb;
#X obj 415 819 s puis_sortie;
#X obj 1137 619 r Directsignal_01;
#X obj 1506 900 r freq;
#X obj 1503 981 *~;
#X obj 1491 1048 env~;
#X floatatom 1491 1075 5 0 0 0 - - -, f 5;
#X obj 1711 899 r freq;
#X obj 1704 1006 *~;
#X obj 1692 1073 env~;
#X floatatom 1692 1100 5 0 0 0 - - -, f 5;
#X obj 1710 920 phasor~;
#X obj 1588 947 r Square_01;
#X obj 1794 947 r Sawtooth_01;
#X obj 1505 939 square~;
#X obj 1710 943 -~ 0.5;
#X obj 1710 965 *~ 2;
#X obj 1238 58 env~;
#X floatatom 1238 81 5 0 0 0 - - -, f 5;
#X connect 0 0 1 0;
#X connect 0 0 4 1;
#X connect 0 1 2 0;
#X connect 0 1 4 0;
#X connect 0 2 3 0;
#X connect 4 0 7 0;
#X connect 5 0 6 0;
#X connect 5 0 178 0;
#X connect 5 1 6 0;
#X connect 9 0 10 0;
#X connect 11 0 9 0;
#X connect 11 0 12 0;
#X connect 12 0 24 0;
#X connect 14 0 15 0;
#X connect 17 0 26 0;
#X connect 18 0 19 0;
#X connect 20 0 18 0;
#X connect 20 0 21 0;
#X connect 21 0 30 0;
#X connect 23 0 20 0;
#X connect 24 0 25 0;
#X connect 26 0 27 0;
#X connect 29 0 36 0;
#X connect 30 0 31 0;
#X connect 32 0 33 0;
#X connect 33 0 35 0;
#X connect 34 0 33 1;
#X connect 36 0 37 0;
#X connect 37 0 38 0;
#X connect 39 0 40 0;
#X connect 44 0 7 0;
#X connect 45 0 7 0;
#X connect 46 0 7 0;
#X connect 47 0 7 0;
#X connect 48 0 7 0;
#X connect 49 0 7 0;
#X connect 50 0 7 0;
#X connect 51 0 7 0;
#X connect 52 0 7 0;
#X connect 53 0 7 0;
#X connect 54 0 7 0;
#X connect 55 0 7 0;
#X connect 56 0 7 0;
#X connect 57 0 7 0;
#X connect 58 0 7 0;
#X connect 59 0 7 0;
#X connect 61 0 12 1;
#X connect 62 0 17 1;
#X connect 63 0 14 0;
#X connect 63 0 17 0;
#X connect 64 0 21 1;
#X connect 68 0 67 0;
#X connect 69 0 70 0;
#X connect 71 0 72 0;
#X connect 73 0 80 0;
#X connect 81 0 84 0;
#X connect 85 0 86 0;
#X connect 91 0 90 0;
#X connect 94 0 85 0;
#X connect 96 0 91 0;
#X connect 97 0 68 0;
#X connect 98 0 81 0;
#X connect 99 0 71 0;
#X connect 100 0 69 0;
#X connect 102 0 106 1;
#X connect 103 0 106 1;
#X connect 104 0 113 0;
#X connect 105 0 111 0;
#X connect 105 1 112 0;
#X connect 105 2 153 0;
#X connect 105 3 122 0;
#X connect 105 4 126 0;
#X connect 105 5 136 0;
#X connect 105 6 156 0;
#X connect 105 7 151 0;
#X connect 106 0 107 0;
#X connect 107 0 108 0;
#X connect 107 0 108 1;
#X connect 107 0 109 0;
#X connect 109 0 110 0;
#X connect 111 0 102 0;
#X connect 112 0 103 0;
#X connect 113 0 107 1;
#X connect 113 0 162 0;
#X connect 114 0 115 0;
#X connect 115 0 116 1;
#X connect 115 0 117 1;
#X connect 115 0 118 1;
#X connect 115 0 160 0;
#X connect 116 0 117 0;
#X connect 117 0 118 0;
#X connect 118 0 119 0;
#X connect 119 0 120 0;
#X connect 120 0 121 0;
#X connect 121 0 147 0;
#X connect 122 0 114 0;
#X connect 123 0 124 0;
#X connect 124 0 119 1;
#X connect 124 0 120 1;
#X connect 124 0 121 1;
#X connect 124 0 161 0;
#X connect 126 0 123 0;
#X connect 127 0 128 0;
#X connect 128 0 129 0;
#X connect 129 0 131 0;
#X connect 131 0 130 0;
#X connect 132 0 137 1;
#X connect 133 0 132 0;
#X connect 134 0 135 0;
#X connect 135 0 129 1;
#X connect 135 0 159 0;
#X connect 136 0 134 0;
#X connect 137 0 106 0;
#X connect 144 0 127 0;
#X connect 145 0 116 0;
#X connect 146 0 105 0;
#X connect 148 0 149 0;
#X connect 149 0 152 0;
#X connect 151 0 148 0;
#X connect 153 0 104 0;
#X connect 154 0 155 0;
#X connect 155 0 158 0;
#X connect 156 0 154 0;
#X connect 163 0 36 1;
#X connect 164 0 175 0;
#X connect 165 0 166 0;
#X connect 166 0 167 0;
#X connect 168 0 172 0;
#X connect 169 0 170 0;
#X connect 170 0 171 0;
#X connect 172 0 176 0;
#X connect 173 0 165 1;
#X connect 174 0 169 1;
#X connect 175 0 165 0;
#X connect 176 0 177 0;
#X connect 177 0 169 0;
#X connect 178 0 179 0;
