#N canvas 875 54 1042 973 12;
#X obj 210 240 textfile;
#X obj 263 318 print END OF FILE;
#X obj 270 270 bng 41 2500 50 0 empty empty empty 17 7 0 10 #f20d0d
#37bc1d #000000;
#X obj 210 370 unpack f f f f s f, f 39;
#X obj 264 397 s min;
#X obj 210 397 s hour;
#X obj 318 397 s sec;
#X obj 372 397 s ms;
#X obj 426 399 pack s f;
#X obj 426 422 s action;
#X obj 241 38 bng 39 250 50 0 empty empty empty 17 7 0 10 #989b10 #e2ee14
#000000;
#N canvas 3 54 1914 973 monitor 0;
#X floatatom 78 98 5 0 0 0 - - -, f 5;
#X floatatom 133 98 5 0 0 0 - - -, f 5;
#X floatatom 188 98 5 0 0 0 - - -, f 5;
#X text 78 118 hour;
#X text 132 118 minute;
#X text 186 118 second;
#X floatatom 244 98 5 0 0 0 - - -, f 5;
#X text 243 118 milliseconds;
#X obj 78 62 r hour;
#X obj 133 62 r min;
#X obj 188 62 r sec;
#X obj 244 62 r ms;
#X obj 80 150 r action;
#X obj 80 179 unpack s f, f 32;
#X symbolatom 80 208 13 0 0 0 - - -, f 13;
#X floatatom 238 208 5 0 0 0 - - -, f 5;
#X text 174 208 control;
#X text 278 208 value;
#X obj 650 300 s Vib-OnOff;
#X obj 899 181 s Vib-Vol;
#X obj 774 181 s Vib-Roughness;
#X obj 650 157 route Vib-OnOff Vib-Roughness Vib-Vol Snd-OnOff Snd-Roughness
Snd-Vol Viz-OnOff Viz-Roughness Viz-Vol, f 161;
#X obj 1649 182 s Viz-Vol;
#X obj 1524 182 s Viz-Roughness;
#X obj 1149 206 s Snd-Roughness;
#X obj 1274 206 s Snd-Vol;
#X obj 550 420 r Vib-OnOff;
#X obj 500 532 tgl 15 0 empty empty empty 17 7 0 10 #fcfcfc #000000
#000000 127 127;
#X obj 640 400 r Vib-Roughness;
#X obj 520 551 vsl 15 128 0 1 0 0 empty empty empty 0 -9 0 10 #fcfcfc
#000000 #000000 9100 1;
#X obj 480 551 vsl 15 128 0 1 0 0 empty empty empty 0 -9 0 10 #fcfcfc
#000000 #000000 3200 1;
#X obj 380 532 tgl 15 0 empty empty empty 17 7 0 10 #fcfcfc #000000
#000000 127 127;
#X obj 400 551 vsl 15 128 0 1 0 0 empty empty empty 0 -9 0 10 #fcfcfc
#000000 #000000 12600 1;
#X obj 360 550 vsl 15 128 0 1 0 0 empty empty empty 0 -9 0 10 #fcfcfc
#000000 #000000 9600 1;
#X obj 620 532 tgl 15 0 empty empty empty 17 7 0 10 #fcfcfc #000000
#000000 1 1;
#X obj 641 551 vsl 15 128 0 1 0 0 empty empty empty 0 -9 0 10 #fcfcfc
#000000 #000000 11400 1;
#X obj 600 551 vsl 15 128 0 1 0 0 empty empty empty 0 -9 0 10 #fcfcfc
#000000 #000000 10400 1;
#X obj 360 390 r Snd-OnOff;
#X obj 160 680 r Snd-Roughness;
#X obj 660 840 r Viz-Roughness;
#X obj 800 390 r Viz-OnOff;
#X obj 470 390 r Vib-Vol;
#X obj 190 570 r Snd-Vol;
#X obj 490 840 r Viz-Vol;
#X obj 650 230 + 1;
#X obj 650 255 % 2;
#X msg 650 181 bang;
#X obj 650 206 f 0;
#X obj 650 277 sel 1;
#X obj 1024 231 + 1;
#X obj 1024 256 % 2;
#X msg 1024 182 bang;
#X obj 1024 207 f 0;
#X obj 1024 278 sel 1;
#X obj 1024 301 s Snd-OnOff;
#X obj 1399 231 + 1;
#X obj 1399 256 % 2;
#X msg 1399 182 bang;
#X obj 1399 207 f 0;
#X obj 1399 278 sel 1;
#X obj 1399 301 s Viz-OnOff;
#X floatatom 650 430 5 0 0 0 - - -, f 5;
#X floatatom 160 710 5 0 0 0 - - -, f 5;
#X floatatom 679 859 5 0 0 0 - - -, f 5;
#X floatatom 470 420 5 0 0 0 - - -, f 5;
#X floatatom 190 610 5 0 0 0 - - -, f 5;
#X floatatom 509 860 5 0 0 0 - - -, f 5;
#X obj 650 102 r action;
#X obj 650 130 route list;
#X text 50 20 RAW;
#X text 370 510 SOUND;
#X text 357 684 vol;
#X text 390 684 rough;
#X text 475 684 vol;
#X text 508 684 rough;
#X text 610 510 VISUAL;
#X text 475 510 VIBRATION;
#X text 594 684 vol;
#X text 627 684 rough;
#X connect 8 0 0 0;
#X connect 9 0 1 0;
#X connect 10 0 2 0;
#X connect 11 0 6 0;
#X connect 12 0 13 0;
#X connect 13 0 14 0;
#X connect 13 1 15 0;
#X connect 21 0 46 0;
#X connect 21 1 20 0;
#X connect 21 2 19 0;
#X connect 21 3 51 0;
#X connect 21 4 24 0;
#X connect 21 5 25 0;
#X connect 21 6 57 0;
#X connect 21 7 23 0;
#X connect 21 8 22 0;
#X connect 26 0 27 0;
#X connect 28 0 29 0;
#X connect 28 0 61 0;
#X connect 37 0 31 0;
#X connect 38 0 32 0;
#X connect 38 0 62 0;
#X connect 39 0 35 0;
#X connect 39 0 63 0;
#X connect 40 0 34 0;
#X connect 41 0 30 0;
#X connect 41 0 64 0;
#X connect 42 0 33 0;
#X connect 42 0 65 0;
#X connect 43 0 36 0;
#X connect 43 0 66 0;
#X connect 44 0 45 0;
#X connect 44 0 47 1;
#X connect 45 0 48 0;
#X connect 46 0 47 0;
#X connect 47 0 44 0;
#X connect 48 0 18 0;
#X connect 49 0 50 0;
#X connect 49 0 52 1;
#X connect 50 0 53 0;
#X connect 51 0 52 0;
#X connect 52 0 49 0;
#X connect 53 0 54 0;
#X connect 55 0 56 0;
#X connect 55 0 58 1;
#X connect 56 0 59 0;
#X connect 57 0 58 0;
#X connect 58 0 55 0;
#X connect 59 0 60 0;
#X connect 67 0 68 0;
#X connect 68 0 21 0;
#X coords 0 -1 1 1 385 231 1 328 478;
#X restore 530 140 pd monitor;
#N canvas 120 278 670 461 make-time-stamp 0;
#X obj 80 30 r hour;
#X obj 200 30 r min;
#X obj 320 30 r sec;
#X obj 441 30 r ms;
#X obj 80 390 s time-stamp;
#X obj 98 230 r t0;
#X obj 80 300 - 0;
#X obj 80 60 expr $f1*3600000 + $f2*60000 + $f3*1000 + round($f4);
#X obj 80 349 f;
#X text 84 78 ms;
#X text 90 170 s;
#X text 130 150 downsample;
#X obj 80 200 expr round($f1);
#X floatatom 150 360 5 0 0 0 - - -, f 5;
#X obj 98 120 r downsampling;
#X obj 80 149 /;
#X obj 98 259 t b f;
#X connect 0 0 7 0;
#X connect 1 0 7 1;
#X connect 2 0 7 2;
#X connect 3 0 7 3;
#X connect 5 0 16 0;
#X connect 6 0 8 0;
#X connect 7 0 15 0;
#X connect 8 0 4 0;
#X connect 8 0 13 0;
#X connect 12 0 6 0;
#X connect 14 0 15 1;
#X connect 15 0 12 0;
#X connect 16 0 6 0;
#X connect 16 1 6 1;
#X restore 440 500 pd make-time-stamp;
#N canvas 3 54 1914 973 browse 0;
#X obj 80 10 tgl 15 0 empty empty empty 17 7 0 10 #fcfcfc #000000 #000000
1 1;
#X obj 80 152 + 1;
#X floatatom 430 180 23 0 0 0 - - -, f 23;
#X obj 135 230 r time-stamp;
#X obj 130 320 ==;
#X obj 130 380 s forward;
#X floatatom 430 210 23 0 0 0 - - -, f 23;
#X obj 130 350 sel 1;
#X obj 80 -20 r start-stop;
#X obj 80 30 metro 100;
#X obj 135 290 t b f;
#X obj 124 60 r init;
#X obj 62 292 t b f;
#X obj 52 322 >;
#X text 190 300 if the time stamp equals the current counter state
-> move forward in the file;
#X obj 52 450 t b b b;
#X msg -150 160 0;
#X obj 80 668 s forward;
#X obj 52 351 sel 1 0;
#X text -450 360 - stop the browsing of line (above metro);
#X text -450 380 - step forward "manually" in the file;
#X obj 140 450 spigot;
#X msg 211 412 1;
#X msg 246 412 0;
#X obj 210 440 tgl 15 0 empty empty empty 17 7 0 10 #fcfcfc #000000
#000000 0 1;
#X text -420 421 - turn on metro to routinely step foward in the file
;
#X text -420 401 - turn spigot on to allow "<" bangs to pass (for exiting)
;
#X text -420 441 - once "<" condition is met \, turn off spigot \,
turn off metro \, and turn general metro back on;
#X text -400 310 sometimes there are too many identical time stamp...
so we just freeze the count and manually advance in the file;
#X msg 81 587 1;
#X msg 116 587 0;
#X obj 80 615 tgl 15 0 empty empty empty 17 7 0 10 #fcfcfc #000000
#000000 0 1;
#X text 150 480 bang if time stamp > counter;
#X obj 131 525 t b b b;
#X msg -120 160 1;
#X obj 80 639 metro 100;
#X msg 124 83 0;
#X obj 80 123 f 0;
#X text 272 70 to start reading from a specific time stamp;
#X obj 170 90 r manual-timestamp;
#X text 594 210 next event;
#X text 593 180 current counter;
#X text 500 150 TIME STAMPS;
#X connect 0 0 9 0;
#X connect 1 0 2 0;
#X connect 1 0 4 0;
#X connect 1 0 37 1;
#X connect 1 0 13 0;
#X connect 3 0 6 0;
#X connect 3 0 10 0;
#X connect 3 0 12 0;
#X connect 4 0 7 0;
#X connect 7 0 5 0;
#X connect 8 0 0 0;
#X connect 9 0 37 0;
#X connect 10 0 4 0;
#X connect 10 1 4 1;
#X connect 11 0 36 0;
#X connect 12 0 13 0;
#X connect 12 1 13 1;
#X connect 13 0 18 0;
#X connect 15 0 29 0;
#X connect 15 1 22 0;
#X connect 15 2 16 0;
#X connect 16 0 0 0;
#X connect 18 0 15 0;
#X connect 18 1 21 0;
#X connect 21 0 33 0;
#X connect 22 0 24 0;
#X connect 23 0 24 0;
#X connect 24 0 21 1;
#X connect 29 0 31 0;
#X connect 30 0 31 0;
#X connect 31 0 35 0;
#X connect 33 0 34 0;
#X connect 33 1 30 0;
#X connect 33 2 23 0;
#X connect 34 0 0 0;
#X connect 35 0 17 0;
#X connect 36 0 37 0;
#X connect 37 0 1 0;
#X connect 39 0 37 1;
#X coords 0 -1 1 1 306 117 1 403 124;
#X restore 30 480 pd browse;
#X obj 240 180 r forward;
#N canvas 3 54 1914 998 init 0;
#X obj 352 30 inlet init-bang;
#X msg 212 332 read ../../TESTS/results/Participant_1.txt;
#X msg 340 290 rewind;
#X msg 272 372 bang;
#X obj 472 220 f;
#X obj 472 245 s t0;
#X text 500 217 get 1st time stamp;
#X obj 250 500 s to-textfile;
#X obj 142 -73 r filename;
#X text 302 -48 initalize upon reception of a filename;
#X text 302 -28 filename is given as a message in the command line
call of pd (see README.md);
#X obj 150 -50 print got a file name;
#X msg 151 66 clear;
#X obj 142 37 t s b b;
#X msg 200 66 set;
#X msg 142 96 set read \$1;
#X text 670 90 init procedure:;
#X text 670 131 - load/read the file;
#X text 670 151 - rewind;
#X text 670 190 - output first line;
#X text 670 210 - rewind (prepare for reading through the whole file)
;
#X text 670 230 - send 1st calculated time stamp (t0);
#X obj 490 191 spigot;
#X obj 352 100 t b b b b b b b;
#X msg 529 160 1;
#X msg 538 134 0;
#X text 670 170 - open the spigot to let 1st time stamp pass through
;
#X text 670 250 - close the spigot to prevent other time stamps to
overwrite the 1st one;
#X obj 1302 -138 loadbang;
#X msg 1334 -69 1000;
#X obj 1334 -40 s downsampling;
#X obj 710 411 r hour;
#X obj 830 411 r min;
#X obj 950 411 r sec;
#X obj 1071 411 r ms;
#X obj 710 441 expr $f1*3600000 + $f2*60000 + $f3*1000 + round($f4)
;
#X text 714 459 ms;
#X text 720 551 s;
#X text 760 531 downsample;
#X obj 710 581 expr round($f1);
#X obj 728 501 r downsampling;
#X obj 710 530 /;
#X obj 490 90 s init;
#X obj 352 59 delay 100;
#X msg 1302 11 90;
#X text 1332 12 assumed maximum length of a recording \, in minutes
(might be changed in the future \, or maybe we should make a dynamic
estimation...);
#X obj 1302 90 expr $f1*60*1000;
#X floatatom 1312 119 17 0 0 0 - - -, f 17;
#X obj 1302 182 /;
#X obj 1320 152 r downsampling;
#X obj 1302 -109 t b b;
#X obj 1302 211 s max-timestamp;
#X connect 0 0 43 0;
#X connect 1 0 7 0;
#X connect 2 0 7 0;
#X connect 3 0 7 0;
#X connect 4 0 5 0;
#X connect 8 0 11 0;
#X connect 8 0 13 0;
#X connect 12 0 1 0;
#X connect 13 0 15 0;
#X connect 13 1 12 0;
#X connect 13 2 14 0;
#X connect 14 0 1 0;
#X connect 15 0 1 0;
#X connect 22 0 4 1;
#X connect 23 0 25 0;
#X connect 23 1 4 0;
#X connect 23 2 2 0;
#X connect 23 3 3 0;
#X connect 23 4 24 0;
#X connect 23 5 2 0;
#X connect 23 6 1 0;
#X connect 24 0 22 1;
#X connect 25 0 22 1;
#X connect 28 0 50 0;
#X connect 29 0 30 0;
#X connect 31 0 35 0;
#X connect 32 0 35 1;
#X connect 33 0 35 2;
#X connect 34 0 35 3;
#X connect 35 0 41 0;
#X connect 39 0 22 0;
#X connect 40 0 41 1;
#X connect 41 0 39 0;
#X connect 43 0 23 0;
#X connect 43 0 42 0;
#X connect 44 0 46 0;
#X connect 46 0 47 0;
#X connect 46 0 48 0;
#X connect 48 0 51 0;
#X connect 49 0 48 1;
#X connect 50 0 44 0;
#X connect 50 1 29 0;
#X restore 241 90 pd init;
#X obj 210 150 r to-textfile;
#X obj 20 124 s start-stop;
#X msg 240 209 bang;
#X obj 20 40 bng 38 250 50 0 empty empty empty 17 7 0 10 #ff0e0e #9c2d2d
#000000;
#X msg 20 90 0;
#X text 20 20 STOP;
#X text 241 10 INIT;
#X obj 88 40 bng 38 250 50 0 empty empty empty 17 7 0 10 #0a9232 #0aff59
#000000;
#X text 88 20 RESUME;
#X msg 88 90 1;
#X obj 460 20 hsl 300 15 0 5400 0 0 empty timeline empty -2 -8 0 10
#fcfcfc #000000 #000000 15200 1;
#N canvas 179 281 678 384 time-line 0;
#X obj 310 30 r max-timestamp;
#X msg 290 130 range \$1 \$2;
#X obj 290 100 pack 0 1000;
#X obj 310 59 t b f;
#X obj 290 159 s timeline;
#X connect 0 0 3 0;
#X connect 1 0 4 0;
#X connect 2 0 1 0;
#X connect 3 0 2 0;
#X connect 3 1 2 1;
#X restore 610 70 pd time-line;
#X obj 460 70 s manual-timestamp;
#X obj 460 44 int;
#X text 450 0 beginning;
#X text 720 0 end of file;
#X text 500 40 manually set the starting point;
#X connect 0 0 3 0;
#X connect 0 1 1 0;
#X connect 0 1 2 0;
#X connect 3 0 5 0;
#X connect 3 1 4 0;
#X connect 3 2 6 0;
#X connect 3 3 7 0;
#X connect 3 4 8 0;
#X connect 3 5 8 1;
#X connect 8 0 9 0;
#X connect 10 0 15 0;
#X connect 14 0 18 0;
#X connect 16 0 0 0;
#X connect 18 0 0 0;
#X connect 19 0 20 0;
#X connect 20 0 17 0;
#X connect 23 0 25 0;
#X connect 25 0 17 0;
#X connect 26 0 29 0;
#X connect 29 0 28 0;
