#N canvas 3 54 1914 973 10;
#X obj 290 456 osc~;
#X obj 375 456 osc~;
#X obj 460 456 osc~;
#X obj 545 456 osc~;
#X obj 630 456 osc~;
#X obj 800 456 osc~;
#X obj 715 456 osc~;
#X obj 885 456 osc~;
#X obj 971 456 osc~;
#X obj 290 690 outlet~ sig;
#X obj 290 270 inlet f0;
#X obj 290 620 +~;
#X obj 290 661 /~ 10;
#X obj 290 300 expr $f1/16 \; $f1/8 \; $f1/4 \; $f1/2 \; $f1 \; $f1*2
\; $f1*4 \; $f1*8 \; $f1*16 \;, f 114;
#X obj 1060 80 f \$1;
#X text 1090 80 center;
#X obj 1280 80 f \$2;
#N canvas 1161 238 756 378 amp 0;
#X obj 290 70 inlet current_f;
#X obj 290 220 outlet amp;
#X obj 384 97 r \$0-center;
#X obj 479 96 r \$0-spread;
#X floatatom 390 122 5 0 0 0 - - -, f 5;
#X floatatom 486 121 5 0 0 0 - - -, f 5;
#X obj 290 170 expr exp(-pow(($f1-$f2)/$f3 \, 2));
#X text 490 170 just a Gaussian;
#X text 390 80 peak freq;
#X text 480 80 spread in freq;
#X connect 0 0 6 0;
#X connect 2 0 4 0;
#X connect 2 0 6 1;
#X connect 3 0 5 0;
#X connect 3 0 6 2;
#X connect 6 0 1 0;
#X restore 305 500 pd amp;
#X text 1310 80 spread;
#X obj 1060 100 s \$0-center;
#X obj 1280 100 s \$0-spread;
#X floatatom 305 525 5 0 0 0 - - -, f 5;
#X obj 290 581 *~;
#X obj 1160 -3 loadbang;
#N canvas 2545 241 756 378 amp 0;
#X obj 290 70 inlet current_f;
#X obj 290 220 outlet amp;
#X obj 384 97 r \$0-center;
#X obj 479 96 r \$0-spread;
#X floatatom 390 122 5 0 0 0 - - -, f 5;
#X floatatom 486 121 5 0 0 0 - - -, f 5;
#X obj 290 170 expr exp(-pow(($f1-$f2)/$f3 \, 2));
#X connect 0 0 6 0;
#X connect 2 0 4 0;
#X connect 2 0 6 1;
#X connect 3 0 5 0;
#X connect 3 0 6 2;
#X connect 6 0 1 0;
#X restore 390 499 pd amp;
#X floatatom 390 524 5 0 0 0 - - -, f 5;
#X obj 375 580 *~;
#N canvas 2545 241 756 378 amp 0;
#X obj 290 70 inlet current_f;
#X obj 290 220 outlet amp;
#X obj 384 97 r \$0-center;
#X obj 479 96 r \$0-spread;
#X floatatom 390 122 5 0 0 0 - - -, f 5;
#X floatatom 486 121 5 0 0 0 - - -, f 5;
#X obj 290 170 expr exp(-pow(($f1-$f2)/$f3 \, 2));
#X connect 0 0 6 0;
#X connect 2 0 4 0;
#X connect 2 0 6 1;
#X connect 3 0 5 0;
#X connect 3 0 6 2;
#X connect 6 0 1 0;
#X restore 475 499 pd amp;
#X floatatom 475 524 5 0 0 0 - - -, f 5;
#X obj 460 580 *~;
#N canvas 2545 241 756 378 amp 0;
#X obj 290 70 inlet current_f;
#X obj 290 220 outlet amp;
#X obj 384 97 r \$0-center;
#X obj 479 96 r \$0-spread;
#X floatatom 390 122 5 0 0 0 - - -, f 5;
#X floatatom 486 121 5 0 0 0 - - -, f 5;
#X obj 290 170 expr exp(-pow(($f1-$f2)/$f3 \, 2));
#X connect 0 0 6 0;
#X connect 2 0 4 0;
#X connect 2 0 6 1;
#X connect 3 0 5 0;
#X connect 3 0 6 2;
#X connect 6 0 1 0;
#X restore 560 499 pd amp;
#X floatatom 560 524 5 0 0 0 - - -, f 5;
#X obj 545 580 *~;
#N canvas 2545 241 756 378 amp 0;
#X obj 290 70 inlet current_f;
#X obj 290 220 outlet amp;
#X obj 384 97 r \$0-center;
#X obj 479 96 r \$0-spread;
#X floatatom 390 122 5 0 0 0 - - -, f 5;
#X floatatom 486 121 5 0 0 0 - - -, f 5;
#X obj 290 170 expr exp(-pow(($f1-$f2)/$f3 \, 2));
#X connect 0 0 6 0;
#X connect 2 0 4 0;
#X connect 2 0 6 1;
#X connect 3 0 5 0;
#X connect 3 0 6 2;
#X connect 6 0 1 0;
#X restore 645 498 pd amp;
#X floatatom 645 523 5 0 0 0 - - -, f 5;
#X obj 630 579 *~;
#N canvas 2545 241 756 378 amp 0;
#X obj 290 70 inlet current_f;
#X obj 290 220 outlet amp;
#X obj 384 97 r \$0-center;
#X obj 479 96 r \$0-spread;
#X floatatom 390 122 5 0 0 0 - - -, f 5;
#X floatatom 486 121 5 0 0 0 - - -, f 5;
#X obj 290 170 expr exp(-pow(($f1-$f2)/$f3 \, 2));
#X connect 0 0 6 0;
#X connect 2 0 4 0;
#X connect 2 0 6 1;
#X connect 3 0 5 0;
#X connect 3 0 6 2;
#X connect 6 0 1 0;
#X restore 730 498 pd amp;
#X floatatom 730 523 5 0 0 0 - - -, f 5;
#X obj 715 579 *~;
#N canvas 2545 241 756 378 amp 0;
#X obj 290 70 inlet current_f;
#X obj 290 220 outlet amp;
#X obj 384 97 r \$0-center;
#X obj 479 96 r \$0-spread;
#X floatatom 390 122 5 0 0 0 - - -, f 5;
#X floatatom 486 121 5 0 0 0 - - -, f 5;
#X obj 290 170 expr exp(-pow(($f1-$f2)/$f3 \, 2));
#X connect 0 0 6 0;
#X connect 2 0 4 0;
#X connect 2 0 6 1;
#X connect 3 0 5 0;
#X connect 3 0 6 2;
#X connect 6 0 1 0;
#X restore 815 499 pd amp;
#X floatatom 815 524 5 0 0 0 - - -, f 5;
#X obj 800 580 *~;
#N canvas 2545 241 756 378 amp 0;
#X obj 290 70 inlet current_f;
#X obj 290 220 outlet amp;
#X obj 384 97 r \$0-center;
#X obj 479 96 r \$0-spread;
#X floatatom 390 122 5 0 0 0 - - -, f 5;
#X floatatom 486 121 5 0 0 0 - - -, f 5;
#X obj 290 170 expr exp(-pow(($f1-$f2)/$f3 \, 2));
#X connect 0 0 6 0;
#X connect 2 0 4 0;
#X connect 2 0 6 1;
#X connect 3 0 5 0;
#X connect 3 0 6 2;
#X connect 6 0 1 0;
#X restore 900 498 pd amp;
#X floatatom 900 523 5 0 0 0 - - -, f 5;
#X obj 885 579 *~;
#N canvas 2545 241 756 378 amp 0;
#X obj 290 70 inlet current_f;
#X obj 290 220 outlet amp;
#X obj 384 97 r \$0-center;
#X obj 479 96 r \$0-spread;
#X floatatom 390 122 5 0 0 0 - - -, f 5;
#X floatatom 486 121 5 0 0 0 - - -, f 5;
#X obj 290 170 expr exp(-pow(($f1-$f2)/$f3 \, 2));
#X connect 0 0 6 0;
#X connect 2 0 4 0;
#X connect 2 0 6 1;
#X connect 3 0 5 0;
#X connect 3 0 6 2;
#X connect 6 0 1 0;
#X restore 986 498 pd amp;
#X floatatom 986 523 5 0 0 0 - - -, f 5;
#X obj 971 579 *~;
#X text 310 20 arguments are:;
#X text 340 37 1 \, center frequency of the Gaussian gain;
#X text 340 54 2 \, spread in frequency of the Gaussian gain;
#X text 1110 120 these parameters control the gaussian envelope: center
is the mean (center of the bell shape) \, spread is the spread in frequency
(~ standard deviation);
#X connect 0 0 22 0;
#X connect 1 0 26 0;
#X connect 2 0 29 0;
#X connect 3 0 32 0;
#X connect 4 0 35 0;
#X connect 5 0 41 0;
#X connect 6 0 38 0;
#X connect 7 0 44 0;
#X connect 8 0 47 0;
#X connect 10 0 13 0;
#X connect 11 0 12 0;
#X connect 12 0 9 0;
#X connect 13 0 0 0;
#X connect 13 0 17 0;
#X connect 13 1 1 0;
#X connect 13 1 24 0;
#X connect 13 2 2 0;
#X connect 13 2 27 0;
#X connect 13 3 3 0;
#X connect 13 3 30 0;
#X connect 13 4 4 0;
#X connect 13 4 33 0;
#X connect 13 5 6 0;
#X connect 13 5 36 0;
#X connect 13 6 5 0;
#X connect 13 6 39 0;
#X connect 13 7 7 0;
#X connect 13 7 42 0;
#X connect 13 8 8 0;
#X connect 13 8 45 0;
#X connect 14 0 19 0;
#X connect 16 0 20 0;
#X connect 17 0 21 0;
#X connect 17 0 22 1;
#X connect 22 0 11 0;
#X connect 23 0 14 0;
#X connect 23 0 16 0;
#X connect 24 0 25 0;
#X connect 24 0 26 1;
#X connect 26 0 11 1;
#X connect 27 0 28 0;
#X connect 27 0 29 1;
#X connect 29 0 11 1;
#X connect 30 0 31 0;
#X connect 30 0 32 1;
#X connect 32 0 11 1;
#X connect 33 0 34 0;
#X connect 33 0 35 1;
#X connect 35 0 11 1;
#X connect 36 0 37 0;
#X connect 36 0 38 1;
#X connect 38 0 11 1;
#X connect 39 0 40 0;
#X connect 39 0 41 1;
#X connect 41 0 11 1;
#X connect 42 0 43 0;
#X connect 42 0 44 1;
#X connect 44 0 11 1;
#X connect 45 0 46 0;
#X connect 45 0 47 1;
#X connect 47 0 11 1;
