#N canvas 3 54 1914 973 10;
#X obj 290 456 osc~;
#X obj 375 456 osc~;
#X obj 460 456 osc~;
#X obj 545 456 osc~;
#X obj 630 456 osc~;
#X obj 800 456 osc~;
#X obj 715 456 osc~;
#X obj 885 456 osc~;
#X obj 971 456 osc~;
#X obj 230 600 outlet~ sig;
#X obj 290 270 inlet f0;
#X obj 230 530 +~;
#X obj 230 571 /~ 10;
#X text 480 520 MISSING!!!! AMPLITUDE FOR EACH HARMONICS;
#X obj 290 300 expr $f1/16 \; $f1/8 \; $f1/4 \; $f1/2 \; $f1 \; $f1*2
\; $f1*4 \; $f1*8 \; $f1*16 \;, f 114;
#X connect 0 0 11 0;
#X connect 1 0 11 1;
#X connect 2 0 11 1;
#X connect 3 0 11 1;
#X connect 4 0 11 1;
#X connect 5 0 11 1;
#X connect 6 0 11 1;
#X connect 7 0 11 1;
#X connect 8 0 11 1;
#X connect 10 0 14 0;
#X connect 11 0 12 0;
#X connect 12 0 9 0;
#X connect 14 0 0 0;
#X connect 14 1 1 0;
#X connect 14 2 2 0;
#X connect 14 3 3 0;
#X connect 14 4 4 0;
#X connect 14 5 6 0;
#X connect 14 6 5 0;
#X connect 14 7 7 0;
#X connect 14 8 8 0;
