#N canvas 0 60 1920 1020 10;
#X obj 535 341 * -1;
#X obj 538 492 +~;
#X text 552 418 asc;
#X text 645 418 desc;
#X text 553 429 0:1;
#X text 648 432 1:0;
#X obj 727 283 loadbang;
#X text 536 319 dephase;
#X msg 657 334 0.5;
#X msg 623 334 0;
#X obj 482 457 *~ 2;
#X obj 599 460 *~ 2;
#X obj 482 479 -~ 1;
#X obj 599 482 -~ 1;
#X obj 483 416 phasor~ \$1;
#X obj 579 414 phasor~ \$1;
#X obj 583 516 *~;
#X obj 692 480 line~;
#X msg 692 453 \$1 50;
#X text 536 226 Carré;
#X obj 532 250 inlet;
#X obj 583 559 outlet~;
#X connect 0 0 15 0;
#X connect 1 0 16 0;
#X connect 6 0 9 0;
#X connect 6 0 8 0;
#X connect 6 0 18 0;
#X connect 8 0 15 1;
#X connect 9 0 14 1;
#X connect 10 0 12 0;
#X connect 11 0 13 0;
#X connect 12 0 1 0;
#X connect 13 0 1 1;
#X connect 14 0 10 0;
#X connect 15 0 11 0;
#X connect 16 0 21 0;
#X connect 17 0 16 1;
#X connect 18 0 17 0;
#X connect 20 0 0 0;
#X connect 20 0 14 0;
#X connect 20 0 9 0;
#X connect 20 0 8 0;
