#N canvas 1037 232 880 361 12;
#X floatatom 140 50 5 0 0 0 - - -, f 5;
#X obj 540 290 dac~;
#X obj 360 20 counter;
#X floatatom 370 70 5 0 0 0 - - -, f 5;
#X obj 360 -70 bng 15 250 50 0 empty empty empty 17 7 0 10 #fcfcfc
#000000 #000000;
#X obj 430 -100 tgl 15 0 empty empty empty 17 7 0 10 #fcfcfc #000000
#000000 1 1;
#X obj 144 117 ../shepard;
#X obj 538 221 mux~ . .;
#X obj 500 130 vradio 15 0 0 2 empty empty empty 0 -8 0 10 #fcfcfc
#000000 #000000 1;
#X obj 430 -76 metro 30;
#X obj 410 -20 bng 15 250 50 0 empty empty empty 17 7 0 10 #fcfcfc
#000000 #000000;
#X obj 630 170 ../shepard2 200 300;
#X connect 0 0 6 0;
#X connect 2 0 3 0;
#X connect 2 0 6 0;
#X connect 2 0 11 0;
#X connect 4 0 2 0;
#X connect 5 0 9 0;
#X connect 6 0 7 0;
#X connect 7 0 1 0;
#X connect 7 0 1 1;
#X connect 8 0 7 0;
#X connect 9 0 2 0;
#X connect 10 0 2 2;
#X connect 11 0 7 1;
