#N canvas 3 54 1914 998 10;
#X obj 1355 -103 adc~;
#X obj 1440 262 noise~;
#X obj 1440 314 *~;
#X text 1353 270 Bruit blanc;
#X text 1626 250 Bruit rose;
#X obj 1695 275 *~;
#X obj 1860 299 osc~;
#X obj 1860 360 *~;
#X text 1820 280 Sinus;
#X obj 1860 276 r freq;
#X text 1359 109 signal;
#X obj 1437 115 r~ signal;
#X obj 1437 173 *~;
#N canvas 64 54 1853 998 controls 0;
#X obj 995 -217 r midi;
#N canvas 1920 28 1920 1052 debug 0;
#X obj 43 84 tgl 15 0 empty empty empty 17 7 0 10 #fcfcfc #000000 #000000
0 1;
#X obj 179 85 tgl 15 0 empty empty empty 17 7 0 10 #fcfcfc #000000
#000000 0 1;
#X obj 44 137 tgl 15 0 empty empty empty 17 7 0 10 #fcfcfc #000000
#000000 0 1;
#X obj 178 135 tgl 15 0 empty empty empty 17 7 0 10 #fcfcfc #000000
#000000 0 1;
#X obj 46 195 tgl 15 0 empty empty empty 17 7 0 10 #fcfcfc #000000
#000000 0 1;
#X obj 178 195 tgl 15 0 empty empty empty 17 7 0 10 #fcfcfc #000000
#000000 0 1;
#X obj 178 110 r Sine_01;
#X obj 179 60 r Whitenoise_01;
#X obj 43 59 r Directsignal_01;
#X obj 44 112 r Pinknoise_01;
#X obj 46 170 r Square_01;
#X obj 392 55 r master-On;
#X obj 392 80 bng 15 250 50 0 empty empty empty 17 7 0 10 #fcfcfc #000000
#000000;
#X obj 475 80 bng 15 250 50 0 empty empty empty 17 7 0 10 #fcfcfc #000000
#000000;
#X obj 475 55 r master-Off;
#X floatatom 561 80 5 0 0 0 - - -, f 5;
#X obj 561 55 r master-Vol;
#X obj 390 113 r cutofffreq-hp;
#X floatatom 390 138 5 0 0 0 - - -, f 5;
#X floatatom 496 138 5 0 0 0 - - -, f 5;
#X obj 496 113 r cutofffreq-lp;
#X floatatom 392 200 5 0 0 0 - - -, f 5;
#X obj 392 175 r threshold-in;
#X floatatom 497 198 5 0 0 0 - - -, f 5;
#X obj 497 173 r threshold-out;
#X floatatom 393 264 5 0 0 0 - - -, f 5;
#X obj 393 239 r vib-f0;
#X obj 178 170 r Sawtooth_01;
#X connect 6 0 3 0;
#X connect 7 0 1 0;
#X connect 8 0 0 0;
#X connect 9 0 2 0;
#X connect 10 0 4 0;
#X connect 11 0 12 0;
#X connect 14 0 13 0;
#X connect 16 0 15 0;
#X connect 17 0 18 0;
#X connect 20 0 19 0;
#X connect 22 0 21 0;
#X connect 24 0 23 0;
#X connect 26 0 25 0;
#X connect 27 0 5 0;
#X restore 1008 279 pd debug;
#X msg 1123 203 1;
#X msg 1131 225 0;
#X msg 1238 203 1;
#X msg 1246 225 0;
#X msg 1337 203 1;
#X msg 1345 225 0;
#X msg 1431 203 1;
#X msg 1439 225 0;
#X msg 1493 202 1;
#X msg 1501 224 0;
#X msg 1568 202 1;
#X msg 1576 224 0;
#X obj 1123 281 s Directsignal_01;
#X obj 1238 282 s Whitenoise_01;
#X obj 1337 281 s Pinknoise_01;
#X obj 1431 281 s Sine_01;
#X obj 1493 280 s Square_01;
#X text 883 280 check if it worked!;
#X obj 1567 280 s Sawtooth_01;
#X obj 995 -178 midi-id_to_internal-message;
#X text 225 7 niveaux et filtrages;
#X obj 188 75 s master-On;
#X obj 284 75 s master-Off;
#X obj 380 75 s master-Vol;
#X obj 573 75 s cutofffreq-lp;
#X obj 476 75 s cutofffreq-hp;
#X obj 669 75 s threshold-in;
#X obj 765 74 s threshold-out;
#X obj 862 74 s vib-f0;
#X obj 1193 63 route directsignal whitenoise pinknoise sine square
sawtooth;
#X obj 188 35 route masteron masteroff mastervol cutoffhigh cutofflow
threshin threshout vibf0 amplion amplioff, f 161;
#X obj 958 74 s ampli-on;
#X obj 1054 72 s ampli-off;
#X connect 0 0 21 0;
#X connect 2 0 14 0;
#X connect 3 0 14 0;
#X connect 4 0 15 0;
#X connect 5 0 15 0;
#X connect 6 0 16 0;
#X connect 7 0 16 0;
#X connect 8 0 17 0;
#X connect 9 0 17 0;
#X connect 10 0 18 0;
#X connect 11 0 18 0;
#X connect 12 0 20 0;
#X connect 13 0 20 0;
#X connect 21 0 31 0;
#X connect 21 0 32 0;
#X connect 31 0 2 0;
#X connect 31 0 5 0;
#X connect 31 0 7 0;
#X connect 31 0 9 0;
#X connect 31 0 11 0;
#X connect 31 0 13 0;
#X connect 31 1 4 0;
#X connect 31 1 7 0;
#X connect 31 1 9 0;
#X connect 31 1 11 0;
#X connect 31 1 13 0;
#X connect 31 1 3 0;
#X connect 31 2 6 0;
#X connect 31 2 9 0;
#X connect 31 2 11 0;
#X connect 31 2 13 0;
#X connect 31 2 5 0;
#X connect 31 2 3 0;
#X connect 31 3 8 0;
#X connect 31 3 3 0;
#X connect 31 3 5 0;
#X connect 31 3 7 0;
#X connect 31 3 11 0;
#X connect 31 3 13 0;
#X connect 31 4 10 0;
#X connect 31 4 13 0;
#X connect 31 4 7 0;
#X connect 31 4 5 0;
#X connect 31 4 3 0;
#X connect 31 4 9 0;
#X connect 31 5 12 0;
#X connect 31 5 11 0;
#X connect 31 5 9 0;
#X connect 31 5 7 0;
#X connect 31 5 5 0;
#X connect 31 5 3 0;
#X connect 32 0 23 0;
#X connect 32 1 24 0;
#X connect 32 2 25 0;
#X connect 32 3 27 0;
#X connect 32 4 26 0;
#X connect 32 5 28 0;
#X connect 32 6 29 0;
#X connect 32 7 30 0;
#X connect 32 8 33 0;
#X connect 32 9 34 0;
#X restore 10 -50 pd controls;
#X obj 1455 285 r Whitenoise_01;
#X obj 1710 250 r Pinknoise_01;
#X obj 1695 229 cyclone/pink~;
#X obj 1875 330 r Sine_01;
#X obj 1983 920 r Sawtooth_01;
#X text 449 149 fréquence de coupure;
#X text 448 136 Filtre passe bas;
#X msg 290 795 1;
#X msg 324 710 0;
#X obj 378 791 / 127;
#X obj 285 860 *~;
#X obj 359 907 *~;
#X obj 429 267 * 50;
#X text 446 229 filtrage;
#X obj 493 274 * 1000;
#X obj 878 509 / 127;
#X obj 878 484 * 120;
#X obj 756 937 *~;
#X text 869 457 seuil d'entrée;
#X text 435 246 haut;
#X text 497 255 bas;
#X obj 793 650 receive~ signal;
#X obj 412 401 s~ filtered_signal;
#X obj 67 408 / 127;
#X floatatom 67 436 5 0 0 0 - - -, f 5;
#X text 66 351 freq entrée;
#X obj 67 467 s freq;
#X obj 379 762 * 1;
#X obj 931 529 / 127;
#X obj 931 503 * 120;
#X text 922 476 seuil de sortie;
#X obj 931 553 s seuil_sortie;
#X obj 878 530 s seuil_entree;
#X obj 390 830 s puis_sortie;
#X obj 1452 139 r Directsignal_01;
#X obj 1614 43 r freq;
#X obj 1614 119 *~;
#X obj 1831 30 r freq;
#X obj 1830 150 *~;
#X obj 1830 51 phasor~;
#X obj 1629 90 r Square_01;
#X obj 1845 121 r Sawtooth_01;
#X obj 1614 67 square~;
#X obj 1830 74 -~ 0.5;
#X obj 1830 96 *~ 2;
#X obj 818 671 r seuil_entree;
#X text 190 50 we choose to filter signal to correspond with tactile
sensory.;
#X text 777 260 depends on the amplitude of the envelop;
#X text 775 280 if env < seuil_entree \, no signal;
#X text 774 298 if env > seuil_entree \, then we reinject some signal
;
#X text 775 316 after that \, when env < seuil entree we reinject signal
yet if env > seuil_sortie;
#X text 774 345 if env< seuil_sortie \, then no signal;
#N canvas 1987 55 1853 1025 hp_filt 0;
#X obj 261 279 / 127;
#X floatatom 259 310 5 0 0 0 - - -, f 5;
#X obj 243 377 hip~;
#X obj 241 405 hip~;
#X obj 238 437 hip~;
#X text 269 228 haut;
#X obj 143 318 s freq_ph;
#X obj 150 403 r freq_ph;
#X obj 285 167 inlet;
#X obj 245 485 outlet~;
#X obj 203 168 inlet~;
#X connect 0 0 1 0;
#X connect 1 0 6 0;
#X connect 2 0 3 0;
#X connect 3 0 4 0;
#X connect 4 0 9 0;
#X connect 7 0 2 1;
#X connect 7 0 3 1;
#X connect 7 0 4 1;
#X connect 8 0 0 0;
#X connect 10 0 2 0;
#X restore 347 329 pd hp_filt;
#N canvas 1987 55 1853 1025 lp_filt 0;
#X obj 137 260 lop~;
#X obj 136 288 lop~;
#X obj 133 322 lop~;
#X obj 155 168 / 127;
#X floatatom 153 199 5 0 0 0 - - -, f 5;
#X obj 140 229 s freq_pb;
#X obj 180 294 r freq_pb;
#X obj 154 125 inlet;
#X obj 133 347 outlet~;
#X obj 85 128 inlet~;
#X text 70 101 signal;
#X text 153 97 frequency;
#X connect 0 0 1 0;
#X connect 1 0 2 0;
#X connect 2 0 8 0;
#X connect 3 0 4 0;
#X connect 4 0 5 0;
#X connect 6 0 1 1;
#X connect 6 0 2 1;
#X connect 6 0 0 1;
#X connect 7 0 3 0;
#X connect 9 0 0 0;
#X restore 412 375 pd lp_filt;
#X text 423 295 max frequencies;
#X obj 1370 -70 send~ signal;
#X obj 1612 451 s~ main_signal;
#X obj 347 280 r~ main_signal;
#X obj 659 850 r~ filtered_signal;
#N canvas 67 55 1853 1025 seuils 0;
#X obj 263 183 inlet~;
#X obj 384 181 inlet;
#X text 389 152 entrée \, seuil haut pour l'entrée;
#X obj 613 185 inlet;
#X text 618 156 sortie \, seuil bas pour l'entrée;
#X obj 387 485 env~;
#X floatatom 299 530 5 0 0 0 - - -, f 5;
#X obj 387 597 >;
#X obj 484 597 <;
#X obj 387 641 sel 1;
#X obj 484 641 sel 1;
#X obj 637 573 *~ 0;
#X msg 387 670 1;
#X msg 484 670 0;
#X obj 324 705 bng 15 250 50 0 empty empty empty 17 7 0 10 #fcfcfc
#000000 #000000;
#X obj 434 707 bng 15 250 50 0 empty empty empty 17 7 0 10 #fcfcfc
#000000 #000000;
#X obj 462 407 *~ 1;
#X obj 566 792 outlet;
#X obj 637 598 env~;
#X floatatom 637 623 5 0 0 0 - - -, f 5;
#X obj 637 647 / 65;
#X connect 0 0 16 0;
#X connect 1 0 7 1;
#X connect 3 0 8 1;
#X connect 5 0 6 0;
#X connect 5 0 7 0;
#X connect 5 0 8 0;
#X connect 7 0 9 0;
#X connect 8 0 10 0;
#X connect 9 0 12 0;
#X connect 9 0 14 0;
#X connect 10 0 13 0;
#X connect 10 0 15 0;
#X connect 11 0 18 0;
#X connect 12 0 11 1;
#X connect 13 0 11 1;
#X connect 16 0 5 0;
#X connect 16 0 11 0;
#X connect 18 0 19 0;
#X connect 19 0 20 0;
#X connect 20 0 17 0;
#X restore 793 714 pd seuils;
#X obj 844 692 r seuil_sortie;
#X obj 67 377 * 200;
#X obj 167 434 loadbang;
#X msg 167 459 50;
#X obj 1060 -110 ctlin;
#X floatatom 1060 -88 5 0 0 0 - - -, f 5;
#X floatatom 1074 -69 5 0 0 0 - - -, f 5;
#X floatatom 1088 -49 5 0 0 0 - - -, f 5;
#X obj 1049 -24 pack f f;
#X obj 494 211 r cutofffreq-lp;
#X obj 429 185 r cutofffreq-hp;
#X obj 878 411 r threshold-in;
#X obj 933 437 r threshold-out;
#X obj 63 283 r vib-f0;
#X text 407 763 niveau sortie;
#X obj 290 770 r master-On;
#X obj 325 688 r master-Off;
#X obj 379 739 r master-Vol;
#X floatatom 83 324 5 0 0 0 - - -, f 5;
#X obj 304 1039 dac~ 1;
#X obj 1071 830 r~ signal;
#X obj 1071 872 *~;
#X obj 1071 897 dac~ 2;
#X msg 1114 746 1;
#X msg 1143 746 0;
#X obj 1114 700 r ampli-on;
#X obj 1143 720 r ampli-off;
#X obj 793 750 line \$1 1;
#X floatatom 1760 560 5 0 0 0 - - -, f 5;
#X obj 1810 612 mtof;
#X floatatom 1810 637 5 0 0 0 - - -, f 5;
#X obj 1916 717 unpack;
#X floatatom 1916 767 0 0 0 0 - - -;
#X floatatom 1930 744 0 0 0 0 - - -;
#X obj 1923 657 route 1 2 3 4;
#X obj 1966 716 unpack;
#X floatatom 1966 766 0 0 0 0 - - -;
#X floatatom 1980 743 0 0 0 0 - - -;
#X obj 2050 716 unpack;
#X floatatom 2050 766 0 0 0 0 - - -;
#X floatatom 2064 743 0 0 0 0 - - -;
#X text 2021 679 number of peaks to output (default 0.);
#X text 1818 788 amplitude;
#X obj 1864 609 bng 15 250 50 0 empty empty empty 17 7 0 10 #fcfcfc
#000000 #000000;
#X obj 1812 760 s freq;
#X obj 1854 512 r~ signal;
#X floatatom 1810 684 5 0 0 0 - - -, f 5;
#X obj 1812 721 line \$1 1;
#X obj 417 959 dac~ 2;
#X obj 417 938 *~, f 4;
#X obj 438 915 tgl 15 0 empty empty empty 17 7 0 10 #fcfcfc #000000
#000000 0 1;
#X obj 1810 659 / 2;
#X obj 304 1013 *~, f 4;
#X obj 325 991 tgl 15 0 empty empty empty 17 7 0 10 #fcfcfc #000000
#000000 1 1;
#X obj 325 969 loadbang;
#X obj 1855 549 fiddle~ 4096 1 20 3;
#N canvas 0 52 1920 977 EMULE_MIDI 0;
#X obj 132 181 hsl 128 15 0 1000 0 0 empty empty empty -2 -8 0 10 #fc0400
#000000 #000000 0 1;
#X obj 505 189 send midi;
#X msg 455 -26 23 0;
#X msg 493 -26 23 1;
#X msg 456 -2 24 0;
#X msg 494 -2 24 1;
#X msg 456 21 25 0;
#X msg 494 21 25 1;
#X msg 456 69 27 0;
#X msg 495 69 27 1;
#X msg 454 43 26 0;
#X msg 492 43 26 1;
#X msg 458 93 28 0;
#X msg 496 93 28 1;
#X msg 455 121 29 0;
#X msg 494 120 29 1;
#X msg 457 145 30 0;
#X msg 495 145 30 1;
#X obj 332 130 pack f f;
#X obj 353 -79 vsl 15 128 0 127 0 0 empty empty empty 0 -9 0 10 #fcfcfc
#000000 #000000 0 1;
#X obj 187 -1 hradio 15 0 0 9 empty empty empty 0 -8 0 10 #fcfcfc #000000
#000000 0;
#X obj 187 22 + 1;
#X obj 353 62 t b f;
#X connect 2 0 1 0;
#X connect 3 0 1 0;
#X connect 4 0 1 0;
#X connect 5 0 1 0;
#X connect 6 0 1 0;
#X connect 7 0 1 0;
#X connect 8 0 1 0;
#X connect 9 0 1 0;
#X connect 10 0 1 0;
#X connect 11 0 1 0;
#X connect 12 0 1 0;
#X connect 13 0 1 0;
#X connect 14 0 1 0;
#X connect 15 0 1 0;
#X connect 16 0 1 0;
#X connect 17 0 1 0;
#X connect 18 0 1 0;
#X connect 19 0 22 0;
#X connect 20 0 21 0;
#X connect 21 0 18 0;
#X connect 22 0 18 0;
#X connect 22 1 18 1;
#X restore 10 -100 pd EMULE_MIDI;
#X obj 1049 6 send midi;
#X text 100 -100 envoyer des messages de commande MIDI en l'absence
de contrôleur;
#X text 90 -50 convertit les commandes MIDI en messages compréhensibles
par ce patch;
#X text 90 -20 nécessite le fichier MAPPING;
#N canvas 744 398 450 325 monitor_values 0;
#X obj 342 -9 notein;
#X floatatom 342 12 5 0 0 0 - - -, f 5;
#X floatatom 358 31 5 0 0 0 - - -, f 5;
#X floatatom 375 52 5 0 0 0 - - -, f 5;
#X floatatom 0 57 5 0 0 0 - - -, f 5;
#X obj 0 40 hsl 128 15 0 150 0 0 empty empty empty -2 -8 0 10 #f8fc00
#000000 #000000 0 1;
#X obj 0 172 hsl 128 15 0 1 0 0 empty empty empty -2 -8 0 10 #fcfcfc
#000000 #000000 0 1;
#X floatatom 0 191 5 0 0 0 - - -, f 5;
#X text 30 191 Puissance de sortie;
#X text 38 58 Niveau minimal d'entrée;
#X obj 0 -47 hsl 128 15 0 50 0 0 empty empty empty -2 -8 0 10 #00fc04
#000000 #000000 0 1;
#X text 44 -12 fréquence de coupure;
#X text 45 -24 Filtre passe haut;
#X floatatom 0 -26 5 0 0 0 - - -, f 5;
#X text 93 18 seuil haut;
#X floatatom 0 121 5 0 0 0 - - -, f 5;
#X obj 0 101 hsl 128 15 0 150 0 0 empty empty empty -2 -8 0 10 #fc8000
#000000 #000000 0 1;
#X text 33 121 Niveau minimal de sortie;
#X text 89 80 seuil bas;
#X obj 0 80 r seuil_sortie;
#X obj 0 18 r seuil_entree;
#X obj 0 -70 r freq_ph;
#X obj 0 150 r puis_sortie;
#X obj 260 145 hsl 128 15 0 200 0 0 empty empty empty -2 -8 0 10 #e0c4fc
#000000 #000000 3175 1;
#X floatatom 260 166 5 0 0 0 - - -, f 5;
#X text 304 174 fréquence d'entrée;
#X text 304 188 sinus ou créneau;
#X obj 260 120 r freq;
#X connect 0 0 1 0;
#X connect 0 1 2 0;
#X connect 0 2 3 0;
#X connect 5 0 4 0;
#X connect 6 0 7 0;
#X connect 10 0 13 0;
#X connect 16 0 15 0;
#X connect 19 0 16 0;
#X connect 20 0 5 0;
#X connect 21 0 10 0;
#X connect 22 0 6 0;
#X connect 23 0 24 0;
#X connect 27 0 23 0;
#X restore 10 10 pd monitor_values;
#X text 120 10 vérifier les valeurs échangées;
#N canvas 3 54 1914 973 record 1;
#X obj 120 200 r master-On;
#X obj 272 200 r master-Off;
#X obj 423 200 r master-Vol;
#X obj 572 200 r cutofffreq-hp;
#X obj 712 200 r cutofffreq-lp;
#X obj 116 400 r threshold-in;
#X obj 1170 347 r Whitenoise_01;
#X obj 1269 346 r Pinknoise_01;
#X obj 1363 346 r Sine_01;
#X obj 1425 345 r Square_01;
#X obj 1499 345 r Sawtooth_01;
#X text 1684 565 msec;
#X text 1623 566 sec;
#X text 1560 565 min;
#X text 1498 566 hours;
#X obj 1490 551 zexy/time, f 32;
#X obj 1463 501 r get_time;
#X obj 1670 250 textfile;
#X obj 1260 5 r filename;
#X msg 1290 105 set write \$1;
#X msg 1290 210 write ../../michel;
#X msg 1299 75 clear;
#X obj 1490 615 pack f f f f, f 32;
#X msg 1490 665 set add2 \$1 \$2 \$3 \$4;
#X obj 171 253 s get_time;
#X msg 130 301 set add \$1;
#X obj 120 230 t b f b b;
#X msg 154 276 add2 master-On;
#X obj 130 360 s to_save;
#X obj 1670 204 r to_save;
#X obj 1300 245 s to_save;
#X text 1330 0 initalize upon reception of a filename;
#X text 1330 20 filename is given as a message in the command line
call of pd (see README.md);
#X obj 1490 725 s to_save;
#X obj 1463 525 t b b;
#X text 130 60 each control is received and written as one line in
the following format:;
#X text 130 90 <time> HH MM SS msmsms <name of control> <value>;
#X msg 130 326 add 0;
#X msg 1490 690 add2 17 46 19 398.126;
#X obj 1260 35 t s b;
#X obj 1450 70 loadbang;
#X msg 1450 95 1;
#X text 1510 80 and save the content of the buffer every 5 seconds
;
#X obj 1450 120 metro 5000;
#X obj 1450 140 t b b;
#X obj 323 250 s get_time;
#X msg 282 298 set add \$1;
#X obj 272 227 t b f b b;
#X obj 282 357 s to_save;
#X msg 282 323 add 0;
#X msg 306 273 add2 master-Off;
#X obj 474 249 s get_time;
#X msg 433 297 set add \$1;
#X obj 423 226 t b f b b;
#X obj 433 356 s to_save;
#X msg 433 322 add 0;
#X obj 623 249 s get_time;
#X msg 582 297 set add \$1;
#X obj 572 226 t b f b b;
#X obj 582 356 s to_save;
#X msg 582 322 add 0;
#X obj 763 249 s get_time;
#X msg 722 297 set add \$1;
#X obj 712 226 t b f b b;
#X obj 722 356 s to_save;
#X msg 722 322 add 0;
#X obj 167 447 s get_time;
#X msg 126 495 set add \$1;
#X obj 116 424 t b f b b;
#X obj 126 554 s to_save;
#X msg 126 520 add 0;
#X msg 457 272 add2 master-Vol;
#X msg 606 272 add2 cutofffreq-hp;
#X msg 746 272 add2 cutofffreq-lp;
#X msg 150 470 add2 threshold-in;
#X obj 344 451 s get_time;
#X msg 303 499 set add \$1;
#X obj 293 428 t b f b b;
#X obj 303 558 s to_save;
#X msg 303 524 add 0;
#X obj 293 404 r threshold-out;
#X msg 327 474 add2 threshold-out;
#X obj 523 450 s get_time;
#X msg 482 498 set add \$1;
#X obj 472 427 t b f b b;
#X obj 482 557 s to_save;
#X msg 482 523 add 0;
#X obj 472 403 r vib-f0;
#X msg 506 473 add2 vib-f0;
#X obj 663 449 s get_time;
#X msg 622 497 set add \$1;
#X obj 612 426 t b f b b;
#X obj 622 556 s to_save;
#X msg 622 522 add 0;
#X obj 612 402 r ampli-on;
#X msg 646 472 add2 ampli-on;
#X obj 795 450 s get_time;
#X msg 754 498 set add \$1;
#X obj 744 427 t b f b b;
#X obj 754 557 s to_save;
#X msg 754 523 add 0;
#X obj 744 403 r ampli-off;
#X msg 778 473 add2 ampli-off;
#X obj 173 669 s get_time;
#X msg 132 717 set add \$1;
#X obj 122 646 t b f b b;
#X obj 132 776 s to_save;
#X msg 132 742 add 0;
#X obj 122 622 r Directsignal_01;
#X msg 156 692 add2 Directsignal_01;
#X connect 0 0 26 0;
#X connect 1 0 47 0;
#X connect 2 0 53 0;
#X connect 3 0 58 0;
#X connect 4 0 63 0;
#X connect 5 0 68 0;
#X connect 15 0 22 0;
#X connect 15 1 22 1;
#X connect 15 2 22 2;
#X connect 15 3 22 3;
#X connect 16 0 34 0;
#X connect 18 0 39 0;
#X connect 19 0 20 0;
#X connect 20 0 30 0;
#X connect 21 0 30 0;
#X connect 22 0 23 0;
#X connect 23 0 38 0;
#X connect 25 0 37 0;
#X connect 26 0 37 0;
#X connect 26 1 25 0;
#X connect 26 2 27 0;
#X connect 26 3 24 0;
#X connect 27 0 28 0;
#X connect 29 0 17 0;
#X connect 34 0 38 0;
#X connect 34 1 15 0;
#X connect 37 0 28 0;
#X connect 38 0 33 0;
#X connect 39 0 19 0;
#X connect 39 1 21 0;
#X connect 40 0 41 0;
#X connect 41 0 43 0;
#X connect 43 0 44 0;
#X connect 44 1 20 0;
#X connect 46 0 49 0;
#X connect 47 0 49 0;
#X connect 47 1 46 0;
#X connect 47 2 50 0;
#X connect 47 3 45 0;
#X connect 49 0 48 0;
#X connect 50 0 48 0;
#X connect 52 0 55 0;
#X connect 53 0 55 0;
#X connect 53 1 52 0;
#X connect 53 2 71 0;
#X connect 53 3 51 0;
#X connect 55 0 54 0;
#X connect 57 0 60 0;
#X connect 58 0 60 0;
#X connect 58 1 57 0;
#X connect 58 2 72 0;
#X connect 58 3 56 0;
#X connect 60 0 59 0;
#X connect 62 0 65 0;
#X connect 63 0 65 0;
#X connect 63 1 62 0;
#X connect 63 2 73 0;
#X connect 63 3 61 0;
#X connect 65 0 64 0;
#X connect 67 0 70 0;
#X connect 68 0 70 0;
#X connect 68 1 67 0;
#X connect 68 2 74 0;
#X connect 68 3 66 0;
#X connect 70 0 69 0;
#X connect 71 0 54 0;
#X connect 72 0 59 0;
#X connect 73 0 64 0;
#X connect 74 0 69 0;
#X connect 76 0 79 0;
#X connect 77 0 79 0;
#X connect 77 1 76 0;
#X connect 77 2 81 0;
#X connect 77 3 75 0;
#X connect 79 0 78 0;
#X connect 80 0 77 0;
#X connect 81 0 78 0;
#X connect 83 0 86 0;
#X connect 84 0 86 0;
#X connect 84 1 83 0;
#X connect 84 2 88 0;
#X connect 84 3 82 0;
#X connect 86 0 85 0;
#X connect 87 0 84 0;
#X connect 88 0 85 0;
#X connect 90 0 93 0;
#X connect 91 0 93 0;
#X connect 91 1 90 0;
#X connect 91 2 95 0;
#X connect 91 3 89 0;
#X connect 93 0 92 0;
#X connect 94 0 91 0;
#X connect 95 0 92 0;
#X connect 97 0 100 0;
#X connect 98 0 100 0;
#X connect 98 1 97 0;
#X connect 98 2 102 0;
#X connect 98 3 96 0;
#X connect 100 0 99 0;
#X connect 101 0 98 0;
#X connect 102 0 99 0;
#X connect 104 0 107 0;
#X connect 105 0 107 0;
#X connect 105 1 104 0;
#X connect 105 2 109 0;
#X connect 105 3 103 0;
#X connect 107 0 106 0;
#X connect 108 0 105 0;
#X connect 109 0 106 0;
#X restore 869 96 pd record;
#N canvas 3 54 1914 973 test 1;
#X obj 226 411 s Directsignal_01;
#X obj 341 412 s Whitenoise_01;
#X obj 440 411 s Pinknoise_01;
#X obj 534 411 s Sine_01;
#X obj 596 410 s Square_01;
#X obj 670 410 s Sawtooth_01;
#X obj 230 260 s master-On;
#X obj 326 260 s master-Off;
#X obj 422 260 s master-Vol;
#X obj 615 260 s cutofffreq-lp;
#X obj 518 260 s cutofffreq-hp;
#X obj 711 260 s threshold-in;
#X obj 807 259 s threshold-out;
#X obj 904 259 s vib-f0;
#X obj 1000 259 s ampli-on;
#X obj 1096 257 s ampli-off;
#X floatatom 240 170 5 0 0 0 - - -, f 5;
#X obj 655 630 r to_save;
#X obj 655 656 print;
#X connect 16 0 6 0;
#X restore 627 -51 pd test;
#X connect 0 0 69 0;
#X connect 0 1 69 0;
#X connect 1 0 2 0;
#X connect 2 0 70 0;
#X connect 5 0 70 0;
#X connect 6 0 7 0;
#X connect 7 0 70 0;
#X connect 9 0 6 0;
#X connect 11 0 12 0;
#X connect 12 0 70 0;
#X connect 14 0 2 1;
#X connect 15 0 5 1;
#X connect 16 0 5 0;
#X connect 17 0 7 1;
#X connect 21 0 24 1;
#X connect 22 0 24 1;
#X connect 23 0 25 1;
#X connect 23 0 47 0;
#X connect 24 0 25 0;
#X connect 25 0 123 0;
#X connect 25 0 126 0;
#X connect 26 0 66 1;
#X connect 28 0 67 1;
#X connect 29 0 46 0;
#X connect 30 0 29 0;
#X connect 31 0 24 0;
#X connect 35 0 73 0;
#X connect 37 0 38 0;
#X connect 38 0 40 0;
#X connect 41 0 23 0;
#X connect 42 0 45 0;
#X connect 43 0 42 0;
#X connect 48 0 12 1;
#X connect 49 0 56 0;
#X connect 50 0 70 0;
#X connect 51 0 53 0;
#X connect 52 0 70 0;
#X connect 53 0 57 0;
#X connect 54 0 50 1;
#X connect 55 0 52 1;
#X connect 56 0 50 0;
#X connect 57 0 58 0;
#X connect 58 0 52 0;
#X connect 59 0 73 1;
#X connect 66 0 67 0;
#X connect 67 0 36 0;
#X connect 71 0 66 0;
#X connect 72 0 31 0;
#X connect 73 0 101 0;
#X connect 74 0 73 2;
#X connect 75 0 37 0;
#X connect 76 0 77 0;
#X connect 77 0 40 0;
#X connect 78 0 79 0;
#X connect 78 0 82 1;
#X connect 78 1 80 0;
#X connect 78 1 82 0;
#X connect 78 2 81 0;
#X connect 82 0 131 0;
#X connect 83 0 28 0;
#X connect 84 0 26 0;
#X connect 85 0 30 0;
#X connect 86 0 43 0;
#X connect 87 0 75 0;
#X connect 87 0 92 0;
#X connect 89 0 21 0;
#X connect 90 0 22 0;
#X connect 91 0 41 0;
#X connect 94 0 95 0;
#X connect 95 0 96 0;
#X connect 97 0 95 1;
#X connect 98 0 95 1;
#X connect 99 0 97 0;
#X connect 100 0 98 0;
#X connect 101 0 31 1;
#X connect 103 0 104 0;
#X connect 104 0 125 0;
#X connect 105 0 106 0;
#X connect 105 1 107 0;
#X connect 108 0 105 0;
#X connect 108 1 109 0;
#X connect 108 2 112 0;
#X connect 109 0 110 0;
#X connect 109 1 111 0;
#X connect 112 0 113 0;
#X connect 112 1 114 0;
#X connect 119 0 129 0;
#X connect 120 0 121 0;
#X connect 121 0 118 0;
#X connect 123 0 122 0;
#X connect 124 0 123 1;
#X connect 125 0 120 0;
#X connect 126 0 93 0;
#X connect 127 0 126 1;
#X connect 128 0 127 0;
#X connect 129 0 102 0;
#X connect 129 0 103 0;
#X connect 129 1 117 0;
#X connect 129 4 108 0;
